<?xml version="1.0" encoding="UTF-8"?>
<!-- Generator: visioncortex VTracer 0.6.4 -->
<svg version="1.1" xmlns="http://www.w3.org/2000/svg" width="128" height="128" xmlns:c2pa="http://c2pa.org/manifest"><metadata><c2pa:manifest>AAAWgmp1bWIAAAAeanVtZGMycGEAEQAQgAAAqgA4m3EDYzJwYQAAABZcanVtYgAAAEdqdW1kYzJtYQARABCAAACqADibcQN1cm46YzJwYTozOGNlMzQxMS02MDYyLTQ5ZjQtOTZmOS01YjRiN2VkMDNhZGYAAAADl2p1bWIAAAApanVtZGMyYXMAEQAQgAAAqgA4m3EDYzJwYS5hc3NlcnRpb25zAAAAALxqdW1iAAAARGp1bWRjYm9yABEAEIAAAKoAOJtxE2MycGEuaW5ncmVkaWVudC52MwAAAAAYYzJzaIQ2H59QBo5SAIzglcbkJMoAAABwY2JvcqNpZGM6Zm9ybWF0bWltYWdlL3N2Zyt4bWxqaW5zdGFuY2VJRHgseG1wOmlpZDpiZjZhMzNkMi02M2FmLTRlOTQtODUwZS03ZmU3YjFhMTZjODFscmVsYXRpb25zaGlwaHBhcmVudE9mAAAB4mp1bWIAAABBanVtZGNib3IAEQAQgAAAqgA4m3ETYzJwYS5hY3Rpb25zLnYyAAAAABhjMnNot0TeNfhPU/AlP+OmGrGLJAAAAZljYm9yomdhY3Rpb25zgqJmYWN0aW9ua2MycGEub3BlbmVkanBhcmFtZXRlcnOha2luZ3JlZGllbnRzgaJjdXJseC1zZWxmI2p1bWJmPWMycGEuYXNzZXJ0aW9ucy9jMnBhLmluZ3JlZGllbnQudjNkaGFzaFggphnPV1yu6LXB1u4eU8BbwWOj50KMMR8ntI7xwnWhmwKkZmFjdGlvbngdY29tLmFudGhyb3BpYy5jbGF1ZGUucHJvdmlkZWRqcGFyYW1ldGVyc6F4H2NvbS5hbnRocm9waWMub3JpZ2luLWNvbmZpZGVuY2VndW5rbm93bmtkZXNjcmlwdGlvbnhmQ2xhdWRlIHByb3ZpZGVkIHRoaXMgZmlsZSBhdCB0aGUgcmVxdWVzdCBvZiBhIHVzZXIgYW5kIG1heSBoYXZlIGNyZWF0ZWQgb3IgbW9kaWZpZWQgdGhlIGZpbGUgY29udGVudHMubXNvZnR3YXJlQWdlbnShZG5hbWVmQ2xhdWRlcmFsbEFjdGlvbnNJbmNsdWRlZPUAAADIanVtYgAAAEBqdW1kY2JvcgARABCAAACqADibcRNjMnBhLmhhc2guZGF0YQAAAAAYYzJzaJG8s4QxHps3vQlvTSJY/loAAACAY2JvcqVjYWxnZnNoYTI1NmNwYWRNAAAAAAAAAAAAAAAAAGRoYXNoWCCC3ArcAMpeSdfm+HojhZdtqw4DN65GotVeAHK3tBbRTGRuYW1lbmp1bWJmIG1hbmlmZXN0amV4Y2x1c2lvbnOBomVzdGFydBjkZmxlbmd0aBkeBAAAAj5qdW1iAAAAJ2p1bWRjMmNsABEAEIAAAKoAOJtxA2MycGEuY2xhaW0udjIAAAACD2Nib3KlY2FsZ2ZzaGEyNTZpc2lnbmF0dXJleE1zZWxmI2p1bWJmPS9jMnBhL3VybjpjMnBhOjM4Y2UzNDExLTYwNjItNDlmNC05NmY5LTViNGI3ZWQwM2FkZi9jMnBhLnNpZ25hdHVyZWppbnN0YW5jZUlEeCx4bXA6aWlkOjhhYmQxYWQ0LTZlNDItNDAxMS1iMDJjLTNlYjliODJlMWM4YXJjcmVhdGVkX2Fzc2VydGlvbnODomN1cmx4LXNlbGYjanVtYmY9YzJwYS5hc3NlcnRpb25zL2MycGEuaW5ncmVkaWVudC52M2RoYXNoWCCmGc9XXK7otcHW7h5TwFvBY6PnQowxHye0jvHCdaGbAqJjdXJseCpzZWxmI2p1bWJmPWMycGEuYXNzZXJ0aW9ucy9jMnBhLmFjdGlvbnMudjJkaGFzaFggU1XawLbt0u2Ce4IRZLj+wHR4Qlvc7TmAlCwejB1hzQeiY3VybHgpc2VsZiNqdW1iZj1jMnBhLmFzc2VydGlvbnMvYzJwYS5oYXNoLmRhdGFkaGFzaFggDRU4pgP/nPTlTW8YHeDBKA1XholLDEzIIultbbOnt0N0Y2xhaW1fZ2VuZXJhdG9yX2luZm+jZG5hbWVvQW50aHJvcGljIEZpbGVzZ3ZlcnNpb25lMS4wLjBrc3BlY1ZlcnNpb25lMi40LjAAABA4anVtYgAAAChqdW1kYzJjcwARABCAAACqADibcQNjMnBhLnNpZ25hdHVyZQAAABAIY2JvctKEWQISogEmGCFZAgowggIGMIIBjaADAgECAhRA5aAK7sI50L64g/oGQgU9Z1UTADAKBggqhkjOPQQDAzBJMRcwFQYDVQQKEw5BbnRocm9waWMsIFBCQzEuMCwGA1UEAxMlQW50aHJvcGljIENvbnRlbnQgQ3JlZGVudGlhbHMgUm9vdCBDQTAeFw0yNjA4MDcxODQzNTZaFw0yODA4MDYxOTQzNTZaMEQxFzAVBgNVBAoTDkFudGhyb3BpYywgUEJDMSkwJwYDVQQDEyBBbnRocm9waWMgQ2xhdWRlIENvbnRlbnQgU2lnbmluZzBZMBMGByqGSM49AgEGCCqGSM49AwEHA0IABJh6CmvLUBgFFNU0vUKlOVtE6djd17L5SuwX0LemFisBM3dkd/3cyjxFA3Qo5S46fX0/ihY0VZ7mfb9KF703t5OjWDBWMA4GA1UdDwEB/wQEAwIHgDAVBgNVHSUEDjAMBgorBgEEAYPoXgIBMAwGA1UdEwEB/wQCMAAwHwYDVR0jBBgwFoAUzlHiBIFOZFsj+OPEz5o+nMHXXMIwCgYIKoZIzj0EAwMDZwAwZAIwMXMdFJ4BetLLVY7ORuE9noqbbAZOZn/aArXyTwFAZfKrPzxF2vPoJNf1+UCdg1XGAjBwX1zd9WGqYkqmL5SFqw1QySjr1zJfpJM9+1rdDwSPLMOPOjKuiXjoU/pUUeG9RwmhY3BhZFkNngAAAAAAAAAAAAAAAAAAAAAAAAAAAAAAAAAAAAAAAAAAAAAAAAAAAAAAAAAAAAAAAAAAAAAAAAAAAAAAAAAAAAAAAAAAAAAAAAAAAAAAAAAAAAAAAAAAAAAAAAAAAAAAAAAAAAAAAAAAAAAAAAAAAAAAAAAAAAAAAAAAAAAAAAAAAAAAAAAAAAAAAAAAAAAAAAAAAAAAAAAAAAAAAAAAAAAAAAAAAAAAAAAAAAAAAAAAAAAAAAAAAAAAAAAAAAAAAAAAAAAAAAAAAAAAAAAAAAAAAAAAAAAAAAAAAAAAAAAAAAAAAAAAAAAAAAAAAAAAAAAAAAAAAAAAAAAAAAAAAAAAAAAAAAAAAAAAAAAAAAAAAAAAAAAAAAAAAAAAAAAAAAAAAAAAAAAAAAAAAAAAAAAAAAAAAAAAAAAAAAAAAAAAAAAAAAAAAAAAAAAAAAAAAAAAAAAAAAAAAAAAAAAAAAAAAAAAAAAAAAAAAAAAAAAAAAAAAAAAAAAAAAAAAAAAAAAAAAAAAAAAAAAAAAAAAAAAAAAAAAAAAAAAAAAAAAAAAAAAAAAAAAAAAAAAAAAAAAAAAAAAAAAAAAAAAAAAAAAAAAAAAAAAAAAAAAAAAAAAAAAAAAAAAAAAAAAAAAAAAAAAAAAAAAAAAAAAAAAAAAAAAAAAAAAAAAAAAAAAAAAAAAAAAAAAAAAAAAAAAAAAAAAAAAAAAAAAAAAAAAAAAAAAAAAAAAAAAAAAAAAAAAAAAAAAAAAAAAAAAAAAAAAAAAAAAAAAAAAAAAAAAAAAAAAAAAAAAAAAAAAAAAAAAAAAAAAAAAAAAAAAAAAAAAAAAAAAAAAAAAAAAAAAAAAAAAAAAAAAAAAAAAAAAAAAAAAAAAAAAAAAAAAAAAAAAAAAAAAAAAAAAAAAAAAAAAAAAAAAAAAAAAAAAAAAAAAAAAAAAAAAAAAAAAAAAAAAAAAAAAAAAAAAAAAAAAAAAAAAAAAAAAAAAAAAAAAAAAAAAAAAAAAAAAAAAAAAAAAAAAAAAAAAAAAAAAAAAAAAAAAAAAAAAAAAAAAAAAAAAAAAAAAAAAAAAAAAAAAAAAAAAAAAAAAAAAAAAAAAAAAAAAAAAAAAAAAAAAAAAAAAAAAAAAAAAAAAAAAAAAAAAAAAAAAAAAAAAAAAAAAAAAAAAAAAAAAAAAAAAAAAAAAAAAAAAAAAAAAAAAAAAAAAAAAAAAAAAAAAAAAAAAAAAAAAAAAAAAAAAAAAAAAAAAAAAAAAAAAAAAAAAAAAAAAAAAAAAAAAAAAAAAAAAAAAAAAAAAAAAAAAAAAAAAAAAAAAAAAAAAAAAAAAAAAAAAAAAAAAAAAAAAAAAAAAAAAAAAAAAAAAAAAAAAAAAAAAAAAAAAAAAAAAAAAAAAAAAAAAAAAAAAAAAAAAAAAAAAAAAAAAAAAAAAAAAAAAAAAAAAAAAAAAAAAAAAAAAAAAAAAAAAAAAAAAAAAAAAAAAAAAAAAAAAAAAAAAAAAAAAAAAAAAAAAAAAAAAAAAAAAAAAAAAAAAAAAAAAAAAAAAAAAAAAAAAAAAAAAAAAAAAAAAAAAAAAAAAAAAAAAAAAAAAAAAAAAAAAAAAAAAAAAAAAAAAAAAAAAAAAAAAAAAAAAAAAAAAAAAAAAAAAAAAAAAAAAAAAAAAAAAAAAAAAAAAAAAAAAAAAAAAAAAAAAAAAAAAAAAAAAAAAAAAAAAAAAAAAAAAAAAAAAAAAAAAAAAAAAAAAAAAAAAAAAAAAAAAAAAAAAAAAAAAAAAAAAAAAAAAAAAAAAAAAAAAAAAAAAAAAAAAAAAAAAAAAAAAAAAAAAAAAAAAAAAAAAAAAAAAAAAAAAAAAAAAAAAAAAAAAAAAAAAAAAAAAAAAAAAAAAAAAAAAAAAAAAAAAAAAAAAAAAAAAAAAAAAAAAAAAAAAAAAAAAAAAAAAAAAAAAAAAAAAAAAAAAAAAAAAAAAAAAAAAAAAAAAAAAAAAAAAAAAAAAAAAAAAAAAAAAAAAAAAAAAAAAAAAAAAAAAAAAAAAAAAAAAAAAAAAAAAAAAAAAAAAAAAAAAAAAAAAAAAAAAAAAAAAAAAAAAAAAAAAAAAAAAAAAAAAAAAAAAAAAAAAAAAAAAAAAAAAAAAAAAAAAAAAAAAAAAAAAAAAAAAAAAAAAAAAAAAAAAAAAAAAAAAAAAAAAAAAAAAAAAAAAAAAAAAAAAAAAAAAAAAAAAAAAAAAAAAAAAAAAAAAAAAAAAAAAAAAAAAAAAAAAAAAAAAAAAAAAAAAAAAAAAAAAAAAAAAAAAAAAAAAAAAAAAAAAAAAAAAAAAAAAAAAAAAAAAAAAAAAAAAAAAAAAAAAAAAAAAAAAAAAAAAAAAAAAAAAAAAAAAAAAAAAAAAAAAAAAAAAAAAAAAAAAAAAAAAAAAAAAAAAAAAAAAAAAAAAAAAAAAAAAAAAAAAAAAAAAAAAAAAAAAAAAAAAAAAAAAAAAAAAAAAAAAAAAAAAAAAAAAAAAAAAAAAAAAAAAAAAAAAAAAAAAAAAAAAAAAAAAAAAAAAAAAAAAAAAAAAAAAAAAAAAAAAAAAAAAAAAAAAAAAAAAAAAAAAAAAAAAAAAAAAAAAAAAAAAAAAAAAAAAAAAAAAAAAAAAAAAAAAAAAAAAAAAAAAAAAAAAAAAAAAAAAAAAAAAAAAAAAAAAAAAAAAAAAAAAAAAAAAAAAAAAAAAAAAAAAAAAAAAAAAAAAAAAAAAAAAAAAAAAAAAAAAAAAAAAAAAAAAAAAAAAAAAAAAAAAAAAAAAAAAAAAAAAAAAAAAAAAAAAAAAAAAAAAAAAAAAAAAAAAAAAAAAAAAAAAAAAAAAAAAAAAAAAAAAAAAAAAAAAAAAAAAAAAAAAAAAAAAAAAAAAAAAAAAAAAAAAAAAAAAAAAAAAAAAAAAAAAAAAAAAAAAAAAAAAAAAAAAAAAAAAAAAAAAAAAAAAAAAAAAAAAAAAAAAAAAAAAAAAAAAAAAAAAAAAAAAAAAAAAAAAAAAAAAAAAAAAAAAAAAAAAAAAAAAAAAAAAAAAAAAAAAAAAAAAAAAAAAAAAAAAAAAAAAAAAAAAAAAAAAAAAAAAAAAAAAAAAAAAAAAAAAAAAAAAAAAAAAAAAAAAAAAAAAAAAAAAAAAAAAAAAAAAAAAAAAAAAAAAAAAAAAAAAAAAAAAAAAAAAAAAAAAAAAAAAAAAAAAAAAAAAAAAAAAAAAAAAAAAAAAAAAAAAAAAAAAAAAAAAAAAAAAAAAAAAAAAAAAAAAAAAAAAAAAAAAAAAAAAAAAAAAAAAAAAAAAAAAAAAAAAAAAAAAAAAAAAAAAAAAAAAAAAAAAAAAAAAAAAAAAAAAAAAAAAAAAAAAAAAAAAAAAAAAAAAAAAAAAAAAAAAAAAAAAAAAAAAAAAAAAAAAAAAAAAAAAAAAAAAAAAAAAAAAAAAAAAAAAAAAAAAAAAAAAAAAAAAAAAAAAAAAAAAAAAAAAAAAAAAAAAAAAAAAAAAAAAAAAAAAAAAAAAAAAAAAAAAAAAAAAAAAAAAAAAAAAAAAAAAAAAAAAAAAAAAAAAAAAAAAAAAAAAAAAAAAAAAAAAAAAAAAAAAAAAAAAAAAAAAAAAAAAAAAAAAAAAAAAAAAAAAAAAAAAAAAAAAAAAAAAAAAAAAAAAAAAAAAAAAAAAAAAAAAAAAAAAAAAAAAAAAAAAAAAAAAAAAAAAAAAAAAAAAAAAAAAAAAAAAAAAAAAAAAAAAAAAAAAAAAAAAAAAAAAAAAAAAAAAAAAAAAAAAAAAAAAAAAAAAAAAAAAAAAAAAAAAAAAAAAAAAAAAAAAAAAAAAAAAAAAAAAAAAAAAAAAAAAAAAAAAAAAAAAAAAAAAAAAAAAAAAAAAAAAAAAAAAAAAAAAAAAAAAAAAAAAAAAAAAAAAAAAAAAAAAAAAAAAAAAAAAAAAAAAAAAAAAAAAAAAAAAAAAAAAAAAAAAAAAAAAAAAAAAAAAAAAAAAAAAAAAAAAAAAAAAAAAAAAAAAAAAAAAAAAAAAAAAAAAAAAAAAAAAAAAAAAAAAAAAAAAAAAAAAAAAAAAAAAAAAAAAAAAAAAAAAAAAAAAAAAAAAAAAAAAAAAAAAAAAAAAAAAAAAAAAAAAAAAAAAAAAAAAAAAAAAAAAAAAAAAAAAAAAAAAAAAAAAAAAAAAAAAAAAAAAAAAAAAAAAAAAAAAAAAAAAAAAAAAAAAAAAAAAAAAAAAAAAAAAAAAAAAAAAAAAAAAAAAAAAAAAAAAAAAAAAAAAAAAAAAAAAAAAAAAAAAAAAAAAAAAAAAAAAAAAAAAAAAAAAAAAAAAAAAAAAAAAAAAAAAAAAAAAAAAAAAAAAAAAAAAAAAAAAAAAAAAAAAAAAAAAAAAAAAAAAAAAAAAAAAAAAAAAAAAAAAAAAAAAAAAAAAAAAAAAAAAAAAAAAAAAAAAAAAAAAAAAAAAAAAAAAAAAAAAAAAAAAAAAAAAAAAAAAAAAAAAAAAAAAAAAAAAAAAAAAAAAAAAAAAAAAAAAAAAAAAAAAAAAAAAAAAAAAAAAAAAAAAAAAAAAAAAAAAAAAAAAAAAAAAAAAAAAAAAAAAAAAAAAAAAAAAAAAAAAAAAAAAAAAAAAAAAAAAAAAAAAAAAAAAAAAAAAAAAAAAAAAAAAAAAAAAAAAAAAPZYQPCjrJzsq/iLy1pZ8AZp8vzq8iNL92ifKQbxYn8fk+22i4MBFiMAci7+heXHly4QHhM9/4mxlvh2c8k+KtS+sCc=</c2pa:manifest></metadata>
<defs><clipPath id="tile"><rect x="10" y="11" width="108" height="108" rx="25" /></clipPath></defs>
<g clip-path="url(#tile)">
<rect x="10" y="11" width="108" height="108" fill="#1B1A1C" />
<path d="M0 0 C24.42 0 48.84 0 74 0 C74 0.66 74 1.32 74 2 C74.93 2.06 75.86 2.12 76.81 2.19 C80 3 80 3 81.56 5.38 C82.04 6.24 82.51 7.11 83 8 C83.83 8.43 84.65 8.87 85.5 9.31 C89.17 11.79 90.06 14.84 91 19 C91.44 24.19 91.42 29.36 91.4 34.56 C91.4 36.07 91.4 37.59 91.41 39.1 C91.41 42.26 91.41 45.43 91.39 48.59 C91.37 52.62 91.38 56.65 91.4 60.69 C91.41 63.81 91.41 66.93 91.4 70.06 C91.4 71.54 91.4 73.03 91.41 74.51 C91.44 84.04 91.18 92.18 85.81 100.31 C79.57 106.28 72.92 108.11 64.45 108.16 C63.47 108.17 63.47 108.17 62.48 108.18 C60.34 108.19 58.19 108.2 56.05 108.2 C54.55 108.21 53.06 108.21 51.56 108.22 C48.42 108.23 45.28 108.24 42.14 108.24 C38.14 108.25 34.13 108.27 30.13 108.3 C27.04 108.32 23.94 108.32 20.85 108.32 C19.37 108.33 17.9 108.33 16.42 108.35 C6.9 108.43 -1.19 108.18 -9.31 102.81 C-15.31 96.54 -17.11 89.87 -17.18 81.35 C-17.18 80.7 -17.19 80.04 -17.2 79.36 C-17.22 77.18 -17.23 75.01 -17.24 72.83 C-17.24 72.09 -17.25 71.34 -17.25 70.57 C-17.27 66.62 -17.29 62.67 -17.3 58.71 C-17.31 54.65 -17.34 50.59 -17.38 46.52 C-17.41 43.38 -17.41 40.24 -17.42 37.1 C-17.42 35.6 -17.43 34.1 -17.45 32.61 C-17.64 16.61 -17.64 16.61 -13 10 C-10.38 8.19 -10.38 8.19 -8 7 C-7.69 6.3 -7.38 5.6 -7.06 4.88 C-6.54 3.95 -6.54 3.95 -6 3 C-2.88 2.25 -2.88 2.25 0 2 C0 1.34 0 0.68 0 0 Z " fill="#1B1A1C" transform="translate(27,11)"/>
<path d="M0 0 C1.42 -0.01 2.84 -0.03 4.26 -0.06 C6.34 -0.1 8.4 -0.12 10.48 -0.13 C12.32 -0.15 12.32 -0.15 14.2 -0.17 C18.29 0.38 20.44 1.73 23.63 4.3 C25.59 8.22 24.99 13.01 24.63 17.3 C23.03 21.04 22.03 22.03 18.63 24.3 C12.64 25.54 6.73 25.43 0.63 25.3 C-0.11 25.29 -0.86 25.29 -1.63 25.29 C-4.15 25.28 -6.66 25.23 -9.18 25.17 C-10.4 25.17 -10.4 25.17 -11.64 25.18 C-15.93 25.04 -18.66 24.56 -21.9 21.62 C-25.31 17.64 -25.16 14.16 -24.89 9.08 C-24.37 6.3 -24.37 6.3 -22.24 3.11 C-15.77 -0.98 -7.43 0.04 0 0 Z " fill="#EB573A" transform="translate(63.36767578125,25.704833984375)"/>
<path d="M0 0 C1.04 0.01 1.04 0.01 2.1 0.03 C3.8 0.05 5.49 0.09 7.19 0.12 C7.52 2.44 7.85 4.74 8.19 7.12 C8.81 6.32 9.42 5.52 10.06 4.69 C12.27 2.02 12.99 1.26 16.36 0.89 C22.35 0.71 25.62 1.14 30.19 5.12 C32.04 8.82 31.66 13.09 31.19 17.12 C29.08 20.68 28.1 21.82 24.19 23.12 C14.76 24.28 14.76 24.28 11.36 21.79 C10 20.12 10 20.12 8.19 17.12 C7.86 19.77 7.53 22.41 7.19 25.12 C4.48 25.23 1.77 25.31 -0.94 25.38 C-1.7 25.41 -2.46 25.44 -3.24 25.48 C-8.6 25.57 -11.58 24.7 -15.81 21.12 C-18.78 16.67 -18.56 12.35 -17.81 7.12 C-13.17 0.63 -7.57 -0.19 0 0 Z " fill="#8C3EE9" transform="translate(56.8125,50.875)"/>

<path d="M0 0 C2.68 -0.08 5.36 -0.16 8.12 -0.25 C8.96 -0.29 9.79 -0.32 10.65 -0.36 C15.9 -0.44 18.85 0.51 23 4 C24.96 7.92 24.35 12.72 24 17 C22.4 20.74 21.4 21.73 18 24 C11.85 25.28 6.47 25 0 25 C0 16.75 0 8.5 0 0 Z " fill="#EE8779" transform="translate(64,26)"/>
<path d="M0 0 C0.75 0.01 1.49 0.02 2.26 0.03 C4.09 0.05 5.92 0.09 7.75 0.12 C8.57 15.08 8.57 15.08 3.75 21.12 C-0 24.58 -2.9 24.63 -7.84 24.48 C-11.25 23.98 -12.99 22.68 -15.25 20.12 C-16.7 15.79 -16.78 11.66 -16.25 7.12 C-12.23 0.24 -7.49 -0.17 0 0 Z " fill="#22D556" transform="translate(55.25,76.875)"/>
<path d="M0 0 C3.11 1.31 5.45 2.91 7 6 C7.53 10.89 7.73 14.77 5.19 19.06 C1.18 22.61 -3.19 22.47 -8.32 22.39 C-11 22 -11 22 -14.19 19.62 C-16.9 15.45 -16.88 10.78 -16 6 C-11.95 -0.62 -7.29 -0.84 0 0 Z " fill="#36BFED" transform="translate(81,52)"/>
<path d="M0 0 C4.95 0 9.9 0 15 0 C15.7 8.54 16.3 16.49 15 25 C12.27 25.08 9.54 25.14 6.81 25.19 C6.04 25.21 5.27 25.24 4.48 25.26 C-0.18 25.32 -3.19 25.03 -7 22 C-7 21.67 -7 21.34 -7 21 C-1.25 20.88 -1.25 20.88 1 22 C3.04 22.23 5.08 22.41 7.12 22.56 C9.06 22.71 11 22.85 13 23 C13.33 15.74 13.66 8.48 14 1 C9.38 1 4.76 1 0 1 C0 0.67 0 0.34 0 0 Z " fill="#5736B7" transform="translate(49,51)"/>

<path d="M0 0 C1.1 0.03 1.1 0.03 2.23 0.05 C4.03 0.1 5.83 0.17 7.62 0.25 C7.62 0.91 7.62 1.57 7.62 2.25 C6.54 2.34 5.45 2.42 4.34 2.51 C2.89 2.65 1.45 2.79 0 2.94 C-0.71 2.99 -1.43 3.04 -2.16 3.1 C-7.76 3.69 -10.27 5.44 -14.38 9.25 C-15.03 9.25 -15.7 9.25 -16.38 9.25 C-15.44 5.87 -14.52 4.38 -11.81 2.09 C-7.58 -0.18 -4.69 -0.22 0 0 Z " fill="#35C375" transform="translate(55.375,76.75)"/>
<path d="M0 0 C2.1 1.7 2.93 2.61 3.43 5.3 C3.44 9.63 3.43 12.27 1.19 16.06 C-2.86 19.64 -7.22 19.38 -12.39 19.37 C-15 19 -15 19 -17.69 16.5 C-18.12 15.67 -18.55 14.85 -19 14 C-18.34 14.31 -17.68 14.62 -17 14.94 C-12.18 16.65 -7.97 17.81 -3.12 15.81 C-0.86 13.88 -0.05 12.75 1 10 C1.03 7.4 1.03 7.4 0.62 4.75 C0.51 3.86 0.4 2.97 0.29 2.05 C0.19 1.37 0.1 0.7 0 0 Z " fill="#12A7D9" transform="translate(85,55)"/>
<path d="M0 0 C0.66 0 1.32 0 2 0 C1 3 1 3 -2 5 C-7.97 6.24 -13.92 6.1 -20 6 C-20 5.34 -20 4.68 -20 4 C-13.4 3.34 -6.8 2.68 0 2 C0 1.34 0 0.68 0 0 Z " fill="#BF7D81" transform="translate(84,45)"/>
<path d="M0 0 C2.97 0 5.94 0 9 0 C8.26 0.56 7.52 1.11 6.75 1.69 C4.08 3.93 2.08 6.22 0 9 C0 6.03 0 3.06 0 0 Z " fill="#07070E" transform="translate(64,51)"/>
<path d="M0 0 C5.28 0 10.56 0 16 0 C13 3 13 3 10.62 3.4 C9.76 3.39 8.89 3.38 8 3.38 C7.13 3.38 6.27 3.39 5.38 3.4 C3 3 3 3 0 0 Z " fill="#0ACA2F" transform="translate(42,98)"/>
<path d="M0 0 C2.16 1.73 2.94 2.59 3.36 5.38 C3.35 6.24 3.33 7.11 3.31 8 C3.31 8.87 3.3 9.73 3.3 10.62 C3 13 3 13 1 16 C0.01 15.67 -0.98 15.34 -2 15 C-1.48 14.38 -0.97 13.76 -0.44 13.12 C1.64 8.62 0.77 4.79 0 0 Z " fill="#12B8E8" transform="translate(85,55)"/>
<path d="M0 0 C2 2 2 2 2.23 4.53 C2.22 5.51 2.2 6.49 2.19 7.5 C2.18 8.48 2.17 9.46 2.17 10.47 C2 13 2 13 1 15 C0.34 15 -0.32 15 -1 15 C-0.83 13.82 -0.67 12.65 -0.5 11.44 C-0.01 7.59 0.08 3.88 0 0 Z " fill="#DA6B5C" transform="translate(86,30)"/>
<path d="M0 0 C0.91 0.01 1.82 0.02 2.76 0.03 C3.46 0.04 4.16 0.05 4.88 0.06 C2.48 2.46 1.54 2.41 -1.75 2.69 C-2.57 2.76 -3.38 2.84 -4.23 2.91 C-4.85 2.96 -5.48 3.01 -6.12 3.06 C-6.45 2.4 -6.78 1.74 -7.12 1.06 C-4.6 -0.2 -2.81 -0.04 0 0 Z " fill="#59ACDB" transform="translate(76.125,51.9375)"/>
<path d="M0 0 C0.99 0.66 1.98 1.32 3 2 C1.71 3.38 0.37 4.71 -1 6 C-1.66 6 -2.32 6 -3 6 C-1.12 1.12 -1.12 1.12 0 0 Z " fill="#29C05F" transform="translate(42,80)"/>
<path d="M0 0 C2 1 2 1 2 1 Z " fill="#1E1617" transform="translate(101,12)"/>
<path d="M0 0 C2 1 2 1 2 1 Z " fill="#211A19" transform="translate(25,12)"/>
<path d="" fill="#0B0A0A" transform="translate(0,0)"/>
<path d="" fill="#0F0D0D" transform="translate(0,0)"/>
<path d="" fill="#0D0B0B" transform="translate(0,0)"/>
<path d="" fill="#110F0F" transform="translate(0,0)"/>
<path d="" fill="#0E0B0B" transform="translate(0,0)"/>
<path d="" fill="#120F0F" transform="translate(0,0)"/>
<path d="" fill="#0D0B0B" transform="translate(0,0)"/>
<path d="" fill="#120F0F" transform="translate(0,0)"/>
</g>
</svg>
