<svg xmlns="http://www.w3.org/2000/svg" viewBox="0 0 512 512">
<g transform="translate(0.000000,512.000000) scale(0.100000,-0.100000)"
fill="#8c9bd6" stroke="none">
<path d="M1258 4303 c7 -3 16 -2 19 1 4 3 -2 6 -13 5 -11 0 -14 -3 -6 -6z"/>
<path d="M1388 4303 c7 -3 16 -2 19 1 4 3 -2 6 -13 5 -11 0 -14 -3 -6 -6z"/>
<path d="M1708 4293 c6 -2 18 -2 25 0 6 3 1 5 -13 5 -14 0 -19 -2 -12 -5z"/>
<path d="M1255 4216 c-78 -19 -114 -42 -240 -150 l-30 -26 115 7 115 6 124 73
c116 68 123 74 100 83 -46 17 -133 20 -184 7z"/>
<path d="M1763 4213 c15 -2 37 -2 50 0 12 2 0 4 -28 4 -27 0 -38 -2 -22 -4z"/>
<path d="M2050 4216 c0 -2 8 -10 18 -17 15 -13 16 -12 3 4 -13 16 -21 21 -21
13z"/>
<path d="M1890 4191 c30 -9 69 -25 85 -35 l30 -18 -25 21 c-26 21 -102 51
-129 50 -9 0 9 -8 39 -18z"/>
<path d="M1019 4183 c-13 -16 -12 -17 4 -4 9 7 17 15 17 17 0 8 -8 3 -21 -13z"/>
<path d="M959 4133 l-24 -28 28 24 c25 23 32 31 24 31 -2 0 -14 -12 -28 -27z"/>
<path d="M2120 4146 c0 -2 8 -10 18 -17 15 -13 16 -12 3 4 -13 16 -21 21 -21
13z"/>
<path d="M1755 4126 c-134 -31 -239 -85 -497 -259 -185 -124 -213 -135 -233
-89 -11 26 -20 25 -185 -15 -215 -52 -348 -119 -460 -232 -159 -161 -210 -357
-210 -815 0 -89 -3 -199 -7 -246 -7 -77 -8 -81 -13 -37 -5 47 -5 47 -27 32
-20 -14 -23 -26 -25 -93 l-2 -77 -7 70 c-4 39 -5 -227 -2 -590 4 -541 8 -665
19 -687 8 -15 33 -38 57 -50 36 -20 57 -23 152 -23 97 0 115 3 151 23 67 39
70 49 94 342 57 723 74 806 181 910 58 57 114 80 221 92 139 15 139 15 199 77
85 87 134 206 146 359 6 72 6 72 -19 72 -27 0 -105 52 -115 76 -3 9 1 22 10
31 14 14 19 12 54 -15 21 -17 50 -34 64 -37 40 -10 96 18 120 60 25 41 62 46
67 8 4 -24 -47 -87 -88 -108 -25 -13 -28 -20 -33 -92 -11 -154 -72 -306 -157
-393 -28 -28 -44 -52 -37 -54 6 -2 55 -16 107 -31 52 -15 103 -30 113 -32 11
-4 17 0 17 10 0 16 28 37 49 37 5 0 17 -7 25 -16 14 -14 16 -73 16 -506 l0
-491 31 42 c29 40 85 75 112 69 7 -2 31 16 53 40 33 33 48 42 75 42 45 0 97
-52 134 -132 15 -32 33 -58 40 -58 21 0 72 -68 92 -122 9 -26 18 -46 20 -44 6
6 -28 106 -38 112 -5 3 4 17 21 31 16 13 30 31 30 39 0 8 3 14 8 14 4 1 30 33
57 71 28 39 62 85 78 102 15 17 27 37 27 44 0 7 4 13 8 13 4 0 32 34 62 76 30
41 64 86 75 98 11 13 45 58 75 100 30 42 59 76 65 76 6 0 10 -48 9 -137 l0
-138 3 130 c3 102 7 133 20 147 34 38 74 17 83 -44 7 -42 8 -42 9 -8 1 42 -21
77 -50 82 -19 3 -16 9 29 68 27 36 56 71 65 79 10 7 17 19 17 25 0 7 11 23 25
36 14 13 25 29 25 37 0 7 3 13 8 13 4 0 18 17 32 37 23 34 72 97 103 133 7 8
40 51 72 95 33 44 62 82 65 85 18 18 98 344 101 415 1 13 4 10 9 -10 7 -27 8
-26 9 16 1 46 1 46 -36 53 -21 3 -59 6 -86 6 -43 0 -49 -3 -58 -27 -6 -16 -12
-51 -13 -79 0 -29 -4 -48 -7 -43 -3 5 -13 -34 -22 -87 -10 -53 -15 -99 -12
-102 3 -3 5 5 5 18 0 13 3 21 6 18 3 -3 2 -23 -2 -44 -6 -33 -8 -36 -16 -19
-5 14 -6 8 -3 -17 7 -44 -13 -88 -47 -106 -14 -8 -46 -12 -78 -9 l-55 3 61 2
c52 2 64 6 85 30 l24 27 -26 -22 c-22 -20 -36 -23 -110 -23 -90 0 -100 3 -117
37 -9 17 -8 42 8 118 11 54 20 100 20 104 0 3 -14 -19 -31 -49 -36 -66 -78
-111 -139 -150 -71 -44 -139 -60 -266 -60 -130 0 -124 5 -144 -103 -8 -43 -21
-79 -35 -95 -21 -24 -31 -27 -102 -30 -68 -3 -81 -1 -105 18 -16 12 -28 31
-28 44 0 31 39 225 50 254 9 21 8 22 -18 16 -85 -21 -132 -69 -132 -137 0 -38
-15 -57 -45 -57 -32 0 -45 19 -45 64 1 80 56 157 134 190 18 7 67 21 111 29
190 39 287 132 341 327 26 91 26 420 0 565 -21 121 -67 261 -107 331 -25 45
-122 162 -103 125 6 -11 3 -13 -12 -6 -34 14 -187 15 -249 1z m-892 -539 c68
-29 32 -55 -54 -39 -58 11 -151 -1 -212 -27 -26 -11 -70 -42 -98 -67 -45 -43
-53 -47 -77 -38 -80 28 -1 130 135 175 72 24 246 22 306 -4z m-13 -225 c0 -11
-36 -43 -82 -73 l-36 -25 52 0 c171 0 196 -200 36 -281 -88 -45 -169 -23 -224
61 -45 67 -53 114 -32 171 21 55 69 97 138 123 29 10 60 22 68 25 24 9 80 8
80 -1z m2137 -354 c-3 -8 -6 -5 -6 6 -1 11 2 17 5 13 3 -3 4 -12 1 -19z m-10
-50 c-3 -8 -6 -5 -6 6 -1 11 2 17 5 13 3 -3 4 -12 1 -19z m-20 -120 c-3 -7 -5
-2 -5 12 0 14 2 19 5 13 2 -7 2 -19 0 -25z m-10 -50 c-3 -7 -5 -2 -5 12 0 14
2 19 5 13 2 -7 2 -19 0 -25z m-296 -21 c-10 -9 -11 -8 -5 6 3 10 9 15 12 12 3
-3 0 -11 -7 -18z"/>
<path d="M734 3230 c-74 -17 -133 -97 -119 -161 8 -37 48 -75 86 -83 54 -10
66 -6 24 9 -49 17 -85 57 -85 93 0 37 33 88 72 113 41 25 117 22 151 -7 l22
-19 -19 22 c-16 19 -77 46 -96 42 -3 -1 -19 -4 -36 -9z"/>
<path d="M876 3153 c-6 -14 -5 -15 5 -6 7 7 10 15 7 18 -3 3 -9 -2 -12 -12z"/>
<path d="M837 3099 c7 -7 15 -10 18 -7 3 3 -2 9 -12 12 -14 6 -15 5 -6 -5z"/>
<path d="M740 3056 c0 -2 8 -10 18 -17 15 -13 16 -12 3 4 -13 16 -21 21 -21
13z"/>
<path d="M795 3005 c-16 -8 -23 -14 -14 -15 8 0 24 7 35 15 23 18 18 18 -21 0z"/>
<path d="M2169 4087 c4 -4 37 -7 72 -5 l64 3 -72 5 c-40 3 -68 1 -64 -3z"/>
<path d="M2583 4093 c43 -2 110 -2 150 0 40 1 5 3 -78 3 -82 0 -115 -2 -72 -3z"/>
<path d="M3163 4093 c15 -2 37 -2 50 0 12 2 0 4 -28 4 -27 0 -38 -2 -22 -4z"/>
<path d="M3288 4083 c6 -2 18 -2 25 0 6 3 1 5 -13 5 -14 0 -19 -2 -12 -5z"/>
<path d="M859 4043 l-34 -38 38 34 c34 33 42 41 34 41 -2 0 -19 -17 -38 -37z"/>
<path d="M3358 4073 c7 -3 16 -2 19 1 4 3 -2 6 -13 5 -11 0 -14 -3 -6 -6z"/>
<path d="M3418 4063 c7 -3 16 -2 19 1 4 3 -2 6 -13 5 -11 0 -14 -3 -6 -6z"/>
<path d="M3468 4053 c7 -3 16 -2 19 1 4 3 -2 6 -13 5 -11 0 -14 -3 -6 -6z"/>
<path d="M2900 4010 c14 -4 -105 -7 -265 -5 -231 2 -254 1 -110 -4 143 -5 159
-7 77 -9 -112 -2 -94 5 -212 -81 l-35 -26 40 -6 c33 -5 26 -7 -35 -9 -41 -1
-78 -2 -82 -2 -3 1 0 -22 8 -51 25 -92 44 -238 51 -389 l6 -148 31 -4 c159
-23 205 -38 252 -84 35 -35 65 -103 73 -166 6 -47 10 -31 53 188 56 283 53
278 158 284 85 5 128 -10 137 -47 3 -14 0 -59 -8 -99 -9 -40 -13 -74 -10 -75
3 -2 62 -3 130 -2 68 0 116 -2 106 -4 -11 -2 3 -10 34 -20 62 -22 88 -44 112
-96 10 -22 19 -33 19 -24 0 25 -42 81 -79 106 -19 13 -29 23 -24 23 23 0 77
-48 97 -85 11 -22 22 -42 24 -45 6 -9 22 25 33 68 8 28 22 50 41 65 58 42 168
165 168 186 0 6 3 11 8 11 4 0 27 27 51 60 24 33 47 60 52 60 5 0 9 6 9 13 0
7 8 22 18 33 10 10 25 30 34 43 16 23 16 25 0 39 -31 25 122 -60 163 -91 22
-17 71 -60 109 -96 72 -69 71 -55 -5 45 -159 209 -423 360 -728 418 -143 27
-576 50 -501 26z m308 -727 c-10 -2 -26 -2 -35 0 -10 3 -2 5 17 5 19 0 27 -2
18 -5z"/>
<path d="M728 3993 c7 -3 16 -2 19 1 4 3 -2 6 -13 5 -11 0 -14 -3 -6 -6z"/>
<path d="M1043 3953 c9 -2 23 -2 30 0 6 3 -1 5 -18 5 -16 0 -22 -2 -12 -5z"/>
<path d="M963 3943 c9 -2 23 -2 30 0 6 3 -1 5 -18 5 -16 0 -22 -2 -12 -5z"/>
<path d="M888 3933 c6 -2 18 -2 25 0 6 3 1 5 -13 5 -14 0 -19 -2 -12 -5z"/>
<path d="M828 3923 c6 -2 18 -2 25 0 6 3 1 5 -13 5 -14 0 -19 -2 -12 -5z"/>
<path d="M681 3894 c-260 -69 -423 -181 -506 -351 -35 -73 -27 -77 10 -5 17
32 63 90 106 134 65 65 93 84 190 132 68 33 159 68 224 85 61 16 101 30 90 30
-11 0 -62 -11 -114 -25z"/>
<path d="M1130 3900 c-9 -6 -10 -10 -3 -10 6 0 15 5 18 10 8 12 4 12 -15 0z"/>
<path d="M4935 3840 c10 -11 20 -20 23 -20 3 0 -3 9 -13 20 -10 11 -20 20 -23
20 -3 0 3 -9 13 -20z"/>
<path d="M3990 3826 c0 -2 8 -10 18 -17 15 -13 16 -12 3 4 -13 16 -21 21 -21
13z"/>
<path d="M4755 3781 c-22 -10 -49 -26 -60 -35 -19 -16 -18 -17 25 -12 25 3 73
8 108 12 34 4 62 10 62 15 0 14 -44 39 -70 39 -14 0 -43 -9 -65 -19z"/>
<path d="M4075 3750 c21 -22 41 -40 44 -40 3 0 -13 18 -34 40 -21 22 -41 40
-44 40 -3 0 13 -18 34 -40z"/>
<path d="M4565 3748 l-40 -43 43 40 c39 36 47 45 39 45 -2 0 -21 -19 -42 -42z"/>
<path d="M4970 3760 c0 -16 4 -30 8 -30 5 0 7 14 4 30 -2 17 -6 30 -8 30 -2 0
-4 -13 -4 -30z"/>
<path d="M199 3743 l-24 -28 28 24 c15 14 27 26 27 28 0 8 -8 1 -31 -24z"/>
<path d="M5085 3680 c10 -11 20 -20 23 -20 3 0 -3 9 -13 20 -10 11 -20 20 -23
20 -3 0 3 -9 13 -20z"/>
<path d="M4750 3654 c-91 -16 -170 -37 -170 -44 0 -14 182 -43 280 -43 67 -1
106 4 133 16 44 19 46 30 10 54 -20 13 -50 18 -127 19 -56 1 -112 0 -126 -2z"/>
<path d="M85 3579 c-4 -6 -5 -12 -2 -15 2 -3 7 2 10 11 7 17 1 20 -8 4z"/>
<path d="M4677 3485 c56 -40 134 -67 180 -62 44 5 66 21 60 42 -2 6 -46 13
-98 16 -52 4 -110 10 -129 14 -34 7 -35 6 -13 -10z"/>
<path d="M4555 3470 c10 -11 20 -20 23 -20 3 0 -3 9 -13 20 -10 11 -20 20 -23
20 -3 0 3 -9 13 -20z"/>
<path d="M5001 3454 c0 -11 3 -14 6 -6 3 7 2 16 -1 19 -3 4 -6 -2 -5 -13z"/>
<path d="M3008 3433 c5 -21 7 -23 10 -9 2 10 0 22 -6 28 -6 6 -7 0 -4 -19z"/>
<path d="M2821 3394 c0 -11 3 -14 6 -6 3 7 2 16 -1 19 -3 4 -6 -2 -5 -13z"/>
<path d="M4964 3378 l-19 -23 23 19 c12 11 22 21 22 23 0 8 -8 2 -26 -19z"/>
<path d="M21 3364 c0 -11 3 -14 6 -6 3 7 2 16 -1 19 -3 4 -6 -2 -5 -13z"/>
<path d="M2811 3344 c0 -11 3 -14 6 -6 3 7 2 16 -1 19 -3 4 -6 -2 -5 -13z"/>
<path d="M4823 3333 c9 -2 25 -2 35 0 9 3 1 5 -18 5 -19 0 -27 -2 -17 -5z"/>
<path d="M12 3300 c0 -14 2 -19 5 -12 2 6 2 18 0 25 -3 6 -5 1 -5 -13z"/>
<path d="M101 3304 c0 -11 3 -14 6 -6 3 7 2 16 -1 19 -3 4 -6 -2 -5 -13z"/>
<path d="M3529 3253 l-24 -28 25 22 c25 22 35 23 230 26 l205 2 -206 3 -206 2
-24 -27z"/>
<path d="M2331 3254 c0 -11 3 -14 6 -6 3 7 2 16 -1 19 -3 4 -6 -2 -5 -13z"/>
<path d="M3988 3263 c6 -2 18 -2 25 0 6 3 1 5 -13 5 -14 0 -19 -2 -12 -5z"/>
<path d="M4045 3250 c27 -12 43 -12 25 0 -8 5 -22 9 -30 9 -10 0 -8 -3 5 -9z"/>
<path d="M92 3225 c0 -16 2 -22 5 -12 2 9 2 23 0 30 -3 6 -5 -1 -5 -18z"/>
<path d="M2393 3233 c9 -2 23 -2 30 0 6 3 -1 5 -18 5 -16 0 -22 -2 -12 -5z"/>
<path d="M3168 3233 c12 -2 30 -2 40 0 9 3 -1 5 -23 4 -22 0 -30 -2 -17 -4z"/>
<path d="M3913 3233 c9 -2 23 -2 30 0 6 3 -1 5 -18 5 -16 0 -22 -2 -12 -5z"/>
<path d="M3258 3223 c7 -3 16 -2 19 1 4 3 -2 6 -13 5 -11 0 -14 -3 -6 -6z"/>
<path d="M3998 3223 c7 -3 16 -2 19 1 4 3 -2 6 -13 5 -11 0 -14 -3 -6 -6z"/>
<path d="M3 3185 c0 -22 2 -30 4 -17 2 12 2 30 0 40 -3 9 -5 -1 -4 -23z"/>
<path d="M3480 3105 c-12 -64 -21 -118 -18 -120 2 -2 14 48 27 111 12 64 20
118 18 120 -2 3 -15 -47 -27 -111z"/>
<path d="M4150 3195 c13 -14 26 -25 28 -25 3 0 -5 11 -18 25 -13 14 -26 25
-28 25 -3 0 5 -11 18 -25z"/>
<path d="M84 2960 c0 -96 2 -136 3 -87 2 48 2 126 0 175 -1 48 -3 8 -3 -88z"/>
<path d="M2328 3103 c7 -3 16 -2 19 1 4 3 -2 6 -13 5 -11 0 -14 -3 -6 -6z"/>
<path d="M3433 3070 c0 -25 2 -35 4 -22 2 12 2 32 0 45 -2 12 -4 2 -4 -23z"/>
<path d="M3773 3103 c20 -2 54 -2 75 0 20 2 3 4 -38 4 -41 0 -58 -2 -37 -4z"/>
<path d="M3392 3070 c0 -19 2 -27 5 -17 2 9 2 25 0 35 -3 9 -5 1 -5 -18z"/>
<path d="M3960 3076 c0 -2 8 -10 18 -17 15 -13 16 -12 3 4 -13 16 -21 21 -21
13z"/>
<path d="M4222 3060 c0 -14 2 -19 5 -12 2 6 2 18 0 25 -3 6 -5 1 -5 -13z"/>
<path d="M2300 3054 c0 -45 -124 -254 -144 -242 -2 2 -8 -1 -13 -6 -4 -5 -3
-6 4 -3 6 4 13 2 15 -4 5 -15 152 2 193 22 50 24 88 134 71 202 -7 28 -15 33
-80 42 -41 6 -46 5 -46 -11z"/>
<path d="M3740 3063 c0 -5 24 -7 52 -5 95 5 104 9 26 11 -43 0 -78 -2 -78 -6z"/>
<path d="M4431 3054 c0 -11 3 -14 6 -6 3 7 2 16 -1 19 -3 4 -6 -2 -5 -13z"/>
<path d="M3991 3024 c0 -11 3 -14 6 -6 3 7 2 16 -1 19 -3 4 -6 -2 -5 -13z"/>
<path d="M2931 3014 c0 -11 3 -14 6 -6 3 7 2 16 -1 19 -3 4 -6 -2 -5 -13z"/>
<path d="M3691 3014 c0 -11 3 -14 6 -6 3 7 2 16 -1 19 -3 4 -6 -2 -5 -13z"/>
<path d="M3731 3014 c0 -11 3 -14 6 -6 3 7 2 16 -1 19 -3 4 -6 -2 -5 -13z"/>
<path d="M3422 3000 c0 -14 2 -19 5 -12 2 6 2 18 0 25 -3 6 -5 1 -5 -13z"/>
<path d="M3191 2994 c0 -11 3 -14 6 -6 3 7 2 16 -1 19 -3 4 -6 -2 -5 -13z"/>
<path d="M4442 2975 c0 -16 2 -22 5 -12 2 9 2 23 0 30 -3 6 -5 -1 -5 -18z"/>
<path d="M3681 2964 c0 -11 3 -14 6 -6 3 7 2 16 -1 19 -3 4 -6 -2 -5 -13z"/>
<path d="M3721 2964 c0 -11 3 -14 6 -6 3 7 2 16 -1 19 -3 4 -6 -2 -5 -13z"/>
<path d="M3952 2955 c0 -16 2 -22 5 -12 2 9 2 23 0 30 -3 6 -5 -1 -5 -18z"/>
<path d="M3992 2960 c0 -14 2 -19 5 -12 2 6 2 18 0 25 -3 6 -5 1 -5 -13z"/>
<path d="M3412 2945 c0 -16 2 -22 5 -12 2 9 2 23 0 30 -3 6 -5 -1 -5 -18z"/>
<path d="M3452 2950 c0 -14 2 -19 5 -12 2 6 2 18 0 25 -3 6 -5 1 -5 -13z"/>
<path d="M2461 2944 c0 -11 3 -14 6 -6 3 7 2 16 -1 19 -3 4 -6 -2 -5 -13z"/>
<path d="M3142 2940 c0 -14 2 -19 5 -12 2 6 2 18 0 25 -3 6 -5 1 -5 -13z"/>
<path d="M4222 2935 c0 -16 2 -22 5 -12 2 9 2 23 0 30 -3 6 -5 -1 -5 -18z"/>
<path d="M3181 2934 c0 -11 3 -14 6 -6 3 7 2 16 -1 19 -3 4 -6 -2 -5 -13z"/>
<path d="M3671 2914 c0 -11 3 -14 6 -6 3 7 2 16 -1 19 -3 4 -6 -2 -5 -13z"/>
<path d="M3711 2914 c0 -11 3 -14 6 -6 3 7 2 16 -1 19 -3 4 -6 -2 -5 -13z"/>
<path d="M3442 2900 c0 -14 2 -19 5 -12 2 6 2 18 0 25 -3 6 -5 1 -5 -13z"/>
<path d="M3132 2890 c0 -14 2 -19 5 -12 2 6 2 18 0 25 -3 6 -5 1 -5 -13z"/>
<path d="M3402 2890 c0 -14 2 -19 5 -12 2 6 2 18 0 25 -3 6 -5 1 -5 -13z"/>
<path d="M3171 2884 c0 -11 3 -14 6 -6 3 7 2 16 -1 19 -3 4 -6 -2 -5 -13z"/>
<path d="M4211 2884 c0 -11 3 -14 6 -6 3 7 2 16 -1 19 -3 4 -6 -2 -5 -13z"/>
<path d="M3702 2870 c0 -14 2 -19 5 -12 2 6 2 18 0 25 -3 6 -5 1 -5 -13z"/>
<path d="M3926 2873 c-6 -14 -5 -15 5 -6 7 7 10 15 7 18 -3 3 -9 -2 -12 -12z"/>
<path d="M3432 2850 c0 -14 2 -19 5 -12 2 6 2 18 0 25 -3 6 -5 1 -5 -13z"/>
<path d="M3115 2820 c-4 -23 -5 -43 -2 -46 2 -3 7 14 11 37 4 23 5 44 2 46 -2
2 -7 -14 -11 -37z"/>
<path d="M3351 2844 c0 -11 3 -14 6 -6 3 7 2 16 -1 19 -3 4 -6 -2 -5 -13z"/>
<path d="M3392 2840 c0 -14 2 -19 5 -12 2 6 2 18 0 25 -3 6 -5 1 -5 -13z"/>
<path d="M3471 2844 c0 -11 3 -14 6 -6 3 7 2 16 -1 19 -3 4 -6 -2 -5 -13z"/>
<path d="M2711 2834 c0 -11 3 -14 6 -6 3 7 2 16 -1 19 -3 4 -6 -2 -5 -13z"/>
<path d="M3161 2834 c0 -11 3 -14 6 -6 3 7 2 16 -1 19 -3 4 -6 -2 -5 -13z"/>
<path d="M3880 2829 c-19 -11 -28 -19 -19 -19 9 0 27 9 40 20 29 23 25 23 -21
-1z"/>
<path d="M3929 2813 l-24 -28 28 24 c25 23 32 31 24 31 -2 0 -14 -12 -28 -27z"/>
<path d="M3691 2813 c-1 -21 3 -23 47 -21 l47 1 -42 4 c-29 3 -43 9 -46 21 -3
12 -5 11 -6 -5z"/>
<path d="M3422 2800 c0 -14 2 -19 5 -12 2 6 2 18 0 25 -3 6 -5 1 -5 -13z"/>
<path d="M3341 2794 c0 -11 3 -14 6 -6 3 7 2 16 -1 19 -3 4 -6 -2 -5 -13z"/>
<path d="M3382 2790 c0 -14 2 -19 5 -12 2 6 2 18 0 25 -3 6 -5 1 -5 -13z"/>
<path d="M3461 2794 c0 -11 3 -14 6 -6 3 7 2 16 -1 19 -3 4 -6 -2 -5 -13z"/>
<path d="M3808 2803 c6 -2 18 -2 25 0 6 3 1 5 -13 5 -14 0 -19 -2 -12 -5z"/>
<path d="M2701 2784 c0 -11 3 -14 6 -6 3 7 2 16 -1 19 -3 4 -6 -2 -5 -13z"/>
<path d="M2278 2763 c7 -3 16 -2 19 1 4 3 -2 6 -13 5 -11 0 -14 -3 -6 -6z"/>
<path d="M3412 2750 c0 -14 2 -19 5 -12 2 6 2 18 0 25 -3 6 -5 1 -5 -13z"/>
<path d="M3808 2763 c7 -3 16 -2 19 1 4 3 -2 6 -13 5 -11 0 -14 -3 -6 -6z"/>
<path d="M4075 2728 l-40 -43 43 40 c39 36 47 45 39 45 -2 0 -21 -19 -42 -42z"/>
<path d="M2158 2753 c12 -2 30 -2 40 0 9 3 -1 5 -23 4 -22 0 -30 -2 -17 -4z"/>
<path d="M3095 2715 c-3 -26 -4 -49 -2 -51 3 -3 8 16 12 41 3 26 4 49 2 51 -3
3 -8 -16 -12 -41z"/>
<path d="M3372 2740 c0 -14 2 -19 5 -12 2 6 2 18 0 25 -3 6 -5 1 -5 -13z"/>
<path d="M3451 2744 c0 -11 3 -14 6 -6 3 7 2 16 -1 19 -3 4 -6 -2 -5 -13z"/>
<path d="M3688 2753 c12 -2 30 -2 40 0 9 3 -1 5 -23 4 -22 0 -30 -2 -17 -4z"/>
<path d="M4139 2743 c-13 -16 -12 -17 4 -4 9 7 17 15 17 17 0 8 -8 3 -21 -13z"/>
<path d="M4442 2705 c0 -16 2 -22 5 -12 2 9 2 23 0 30 -3 6 -5 -1 -5 -18z"/>
<path d="M2871 2704 c0 -11 3 -14 6 -6 3 7 2 16 -1 19 -3 4 -6 -2 -5 -13z"/>
<path d="M3402 2695 c0 -16 2 -22 5 -12 2 9 2 23 0 30 -3 6 -5 -1 -5 -18z"/>
<path d="M3362 2690 c0 -14 2 -19 5 -12 2 6 2 18 0 25 -3 6 -5 1 -5 -13z"/>
<path d="M4059 2663 c-13 -16 -12 -17 4 -4 16 13 21 21 13 21 -2 0 -10 -8 -17
-17z"/>
<path d="M2901 2654 c0 -11 3 -14 6 -6 3 7 2 16 -1 19 -3 4 -6 -2 -5 -13z"/>
<path d="M3347 2641 c-4 -17 -3 -21 5 -13 5 5 8 16 6 23 -3 8 -7 3 -11 -10z"/>
<path d="M3392 2640 c0 -14 2 -19 5 -12 2 6 2 18 0 25 -3 6 -5 1 -5 -13z"/>
<path d="M1901 2634 c0 -11 3 -14 6 -6 3 7 2 16 -1 19 -3 4 -6 -2 -5 -13z"/>
<path d="M4010 2635 c-14 -8 -20 -14 -14 -15 5 0 19 7 30 15 24 18 16 19 -16
0z"/>
<path d="M3090 2633 c0 -7 9 -22 20 -33 17 -17 32 -20 108 -18 l87 2 -92 5
c-50 3 -93 8 -96 11 -2 3 -9 14 -15 25 -6 11 -12 14 -12 8z"/>
<path d="M2293 2623 c9 -2 23 -2 30 0 6 3 -1 5 -18 5 -16 0 -22 -2 -12 -5z"/>
<path d="M3823 2623 c9 -2 23 -2 30 0 6 3 -1 5 -18 5 -16 0 -22 -2 -12 -5z"/>
<path d="M3382 2590 c0 -14 2 -19 5 -12 2 6 2 18 0 25 -3 6 -5 1 -5 -13z"/>
<path d="M1891 2584 c0 -11 3 -14 6 -6 3 7 2 16 -1 19 -3 4 -6 -2 -5 -13z"/>
<path d="M3898 2593 c7 -3 16 -2 19 1 4 3 -2 6 -13 5 -11 0 -14 -3 -6 -6z"/>
<path d="M3644 2575 c-3 -8 -4 -20 -1 -27 3 -7 6 -3 6 9 1 21 5 22 109 26
l107 3 -108 2 c-87 2 -109 -1 -113 -13z"/>
<path d="M3372 2540 c0 -14 2 -19 5 -12 2 6 2 18 0 25 -3 6 -5 1 -5 -13z"/>
<path d="M1881 2534 c0 -11 3 -14 6 -6 3 7 2 16 -1 19 -3 4 -6 -2 -5 -13z"/>
<path d="M3632 2510 c0 -14 2 -19 5 -12 2 6 2 18 0 25 -3 6 -5 1 -5 -13z"/>
<path d="M3362 2490 c0 -14 2 -19 5 -12 2 6 2 18 0 25 -3 6 -5 1 -5 -13z"/>
<path d="M3581 2454 c0 -11 3 -14 6 -6 3 7 2 16 -1 19 -3 4 -6 -2 -5 -13z"/>
<path d="M3621 2454 c0 -11 3 -14 6 -6 3 7 2 16 -1 19 -3 4 -6 -2 -5 -13z"/>
<path d="M3352 2435 c0 -16 2 -22 5 -12 2 9 2 23 0 30 -3 6 -5 -1 -5 -18z"/>
<path d="M4375 1815 c0 -357 1 -502 2 -322 2 181 2 473 0 650 -1 177 -2 30 -2
-328z"/>
<path d="M3391 2434 c0 -11 3 -14 6 -6 3 7 2 16 -1 19 -3 4 -6 -2 -5 -13z"/>
<path d="M3374 2383 c11 -13 26 -23 35 -22 14 0 14 1 1 6 -8 3 -24 13 -35 22
-20 16 -20 16 -1 -6z"/>
<path d="M3589 2383 c-13 -16 -12 -17 4 -4 16 13 21 21 13 21 -2 0 -10 -8 -17
-17z"/>
<path d="M918 2293 c7 -3 16 -2 19 1 4 3 -2 6 -13 5 -11 0 -14 -3 -6 -6z"/>
<path d="M1055 1810 c0 -272 1 -384 2 -247 2 136 2 358 0 495 -1 136 -2 24 -2
-248z"/>
<path d="M1140 1975 l0 -307 31 26 c17 14 35 26 40 26 36 0 83 -62 114 -150 9
-24 22 -52 31 -61 8 -9 24 -39 34 -65 l19 -49 1 406 0 406 -102 31 c-57 18
-118 35 -135 38 l-33 7 0 -308z"/>
<path d="M794 2228 l-19 -23 23 19 c12 11 22 21 22 23 0 8 -8 2 -26 -19z"/>
<path d="M701 2004 c0 -11 3 -14 6 -6 3 7 2 16 -1 19 -3 4 -6 -2 -5 -13z"/>
<path d="M692 1925 c0 -16 2 -22 5 -12 2 9 2 23 0 30 -3 6 -5 -1 -5 -18z"/>
<path d="M2668 1863 c6 -2 18 -2 25 0 6 3 1 5 -13 5 -14 0 -19 -2 -12 -5z"/>
<path d="M682 1820 c0 -14 2 -19 5 -12 2 6 2 18 0 25 -3 6 -5 1 -5 -13z"/>
<path d="M2632 1458 l3 -323 2 317 3 317 23 4 c19 4 18 4 -5 6 l-28 1 2 -322z"/>
<path d="M2752 1763 l38 -4 3 -230 3 -229 -1 232 0 233 -40 1 -40 1 37 -4z"/>
<path d="M672 1710 c0 -19 2 -27 5 -17 2 9 2 25 0 35 -3 9 -5 1 -5 -18z"/>
<path d="M1187 1668 c-31 -31 -65 -123 -83 -222 -19 -109 -5 -176 48 -226 32
-29 36 -25 31 28 -9 92 40 239 92 280 l26 21 -21 49 c-12 28 -32 60 -45 72
l-24 22 -24 -24z"/>
<path d="M2921 1646 c-53 -57 -98 -288 -72 -369 11 -32 55 -87 70 -87 3 0 6
35 6 78 1 102 33 200 80 241 l34 30 -32 63 c-18 35 -39 64 -47 66 -9 1 -26 -8
-39 -22z"/>
<path d="M662 1590 c0 -19 2 -27 5 -17 2 9 2 25 0 35 -3 9 -5 1 -5 -18z"/>
<path d="M3475 1508 c-34 -26 -86 -137 -110 -233 -42 -167 -10 -290 87 -341
27 -14 108 -20 108 -8 0 4 -10 23 -22 43 -46 73 -15 261 60 359 31 41 33 46
21 76 -30 73 -74 126 -107 126 -5 0 -22 -10 -37 -22z"/>
<path d="M1276 1488 c-41 -62 -73 -194 -62 -252 14 -73 74 -114 127 -86 65 35
64 192 -2 323 -22 42 -42 47 -63 15z"/>
<path d="M652 1470 c0 -19 2 -27 5 -17 2 9 2 25 0 35 -3 9 -5 1 -5 -18z"/>
<path d="M1720 1464 c-92 -105 -145 -371 -93 -469 36 -68 89 -105 152 -105 39
0 43 9 21 44 -10 18 -22 50 -26 72 -12 78 36 240 88 300 29 32 30 36 17 67
-20 51 -57 105 -78 117 -32 17 -47 12 -81 -26z"/>
<path d="M3034 1492 c-28 -18 -71 -136 -74 -202 -4 -76 1 -99 26 -129 44 -53
111 -35 135 36 29 89 -40 325 -87 295z"/>
<path d="M3321 1414 c-59 -50 -121 -222 -107 -298 8 -44 50 -94 93 -112 44
-19 46 -18 27 17 -36 71 -23 228 31 361 22 55 23 58 5 58 -10 0 -32 -12 -49
-26z"/>
<path d="M1573 1378 c-62 -64 -113 -215 -99 -290 8 -46 49 -96 93 -114 45 -19
46 -18 27 18 -37 71 -24 225 30 359 l24 59 -22 0 c-12 0 -36 -15 -53 -32z"/>
<path d="M642 1345 c0 -16 2 -22 5 -12 2 9 2 23 0 30 -3 6 -5 -1 -5 -18z"/>
<path d="M3635 1324 c-67 -68 -106 -261 -69 -340 44 -93 171 -79 205 23 23 70
-12 229 -67 300 -28 37 -45 41 -69 17z"/>
<path d="M1876 1273 c-36 -55 -67 -157 -68 -222 -1 -71 22 -123 66 -146 91
-49 178 42 162 168 -16 116 -75 237 -116 237 -12 0 -30 -16 -44 -37z"/>
<path d="M632 1220 c0 -19 2 -27 5 -17 2 9 2 25 0 35 -3 9 -5 1 -5 -18z"/>
<path d="M1373 1143 c-34 -36 -33 -37 14 -47 l31 -7 -5 43 c-3 24 -6 43 -7 43
0 0 -15 -14 -33 -32z"/>
<path d="M1110 1166 c0 -2 8 -10 18 -17 15 -13 16 -12 3 4 -13 16 -21 21 -21
13z"/>
<path d="M2061 1144 c0 -11 3 -14 6 -6 3 7 2 16 -1 19 -3 4 -6 -2 -5 -13z"/>
<path d="M1160 1116 c0 -2 8 -10 18 -17 15 -13 16 -12 3 4 -13 16 -21 21 -21
13z"/>
<path d="M2071 1104 c0 -11 3 -14 6 -6 3 7 2 16 -1 19 -3 4 -6 -2 -5 -13z"/>
<path d="M4336 1063 c-6 -14 -5 -15 5 -6 7 7 10 15 7 18 -3 3 -9 -2 -12 -12z"/>
<path d="M30 1037 c0 -2 15 -16 33 -33 l32 -29 -29 33 c-28 30 -36 37 -36 29z"/>
<path d="M564 1008 l-29 -33 33 29 c30 28 37 36 29 36 -2 0 -16 -15 -33 -32z"/>
<path d="M4274 978 l-29 -33 33 29 c30 28 37 36 29 36 -2 0 -16 -15 -33 -32z"/>
<path d="M1438 993 c7 -3 16 -2 19 1 4 3 -2 6 -13 5 -11 0 -14 -3 -6 -6z"/>
<path d="M1470 986 c0 -2 8 -10 18 -17 15 -13 16 -12 3 4 -13 16 -21 21 -21
13z"/>
<path d="M3218 973 c6 -2 18 -2 25 0 6 3 1 5 -13 5 -14 0 -19 -2 -12 -5z"/>
<path d="M2534 948 l-19 -23 23 19 c21 18 27 26 19 26 -2 0 -12 -10 -23 -22z"/>
<path d="M3260 966 c0 -2 8 -10 18 -17 15 -13 16 -12 3 4 -13 16 -21 21 -21
13z"/>
<path d="M1510 946 c0 -2 8 -10 18 -17 15 -13 16 -12 3 4 -13 16 -21 21 -21
13z"/>
<path d="M277 923 c18 -2 50 -2 70 0 21 2 7 4 -32 4 -38 0 -55 -2 -38 -4z"/>
<path d="M4018 853 c7 -3 16 -2 19 1 4 3 -2 6 -13 5 -11 0 -14 -3 -6 -6z"/>
<path d="M3548 843 c7 -3 16 -2 19 1 4 3 -2 6 -13 5 -11 0 -14 -3 -6 -6z"/>
<path d="M3968 843 c7 -3 16 -2 19 1 4 3 -2 6 -13 5 -11 0 -14 -3 -6 -6z"/>
<path d="M3628 833 c12 -2 30 -2 40 0 9 3 -1 5 -23 4 -22 0 -30 -2 -17 -4z"/>
<path d="M3868 833 c12 -2 30 -2 40 0 9 3 -1 5 -23 4 -22 0 -30 -2 -17 -4z"/>
<path d="M2268 823 c7 -3 16 -2 19 1 4 3 -2 6 -13 5 -11 0 -14 -3 -6 -6z"/>
<path d="M1818 813 c7 -3 16 -2 19 1 4 3 -2 6 -13 5 -11 0 -14 -3 -6 -6z"/>
<path d="M1898 803 c12 -2 30 -2 40 0 9 3 -1 5 -23 4 -22 0 -30 -2 -17 -4z"/>
<path d="M2113 803 c9 -2 25 -2 35 0 9 3 1 5 -18 5 -19 0 -27 -2 -17 -5z"/>
</g>
<g transform="translate(0.000000,512.000000) scale(0.100000,-0.100000)"
fill="#363254" stroke="none">
<path d="M1190 4278 c-68 -26 -148 -82 -265 -187 -49 -45 -101 -84 -115 -87
-440 -97 -624 -214 -729 -462 -74 -176 -83 -351 -79 -1512 l3 -925 22 -42 c30
-54 78 -90 154 -114 113 -35 271 -18 354 39 75 51 82 77 110 432 29 364 50
579 65 645 35 155 153 252 297 243 l48 -3 5 -515 c5 -496 6 -517 26 -560 46
-98 126 -161 262 -204 46 -14 90 -26 99 -26 8 0 36 -19 62 -42 65 -58 130 -92
231 -120 76 -21 106 -23 290 -22 194 0 210 2 294 27 143 44 221 102 274 202
l27 50 3 343 3 342 23 0 c13 0 50 -3 84 -6 l61 -7 3 -251 c3 -239 4 -254 27
-303 28 -64 103 -136 175 -169 53 -24 194 -64 227 -64 9 0 40 -15 68 -34 119
-81 269 -111 511 -103 182 6 257 20 358 68 77 37 139 96 173 164 l24 50 5 675
6 675 29 80 c29 79 29 83 30 285 0 133 -5 226 -13 265 -25 112 -64 229 -103
308 -21 44 -39 83 -39 88 0 5 59 9 130 9 108 0 132 -3 137 -15 8 -22 119 -99
179 -126 63 -28 165 -31 211 -6 40 21 67 70 59 108 -5 25 -1 30 42 51 62 30
89 76 72 119 -14 34 -48 60 -102 80 -29 10 -38 18 -38 37 0 39 -29 83 -65 98
-42 17 -120 18 -166 2 -43 -14 -135 -77 -173 -117 l-30 -31 -209 0 -209 0 -56
51 c-150 133 -354 233 -587 287 -173 40 -279 45 -805 38 l-495 -6 -58 65 c-44
49 -76 73 -134 102 -68 34 -85 38 -172 41 -84 4 -106 1 -175 -22 -75 -25 -81
-26 -112 -11 -109 52 -235 60 -334 23z m255 -67 l30 -12 -55 -31 c-30 -17 -86
-50 -125 -73 -67 -41 -74 -43 -190 -53 -66 -6 -122 -9 -124 -6 -3 2 2 10 11
17 8 6 46 37 84 68 76 62 99 76 159 96 47 15 167 12 210 -6z m498 -24 c111
-55 209 -194 256 -366 54 -196 72 -537 36 -691 -48 -208 -152 -311 -357 -354
-43 -8 -95 -24 -116 -35 -47 -24 -100 -82 -108 -119 -3 -15 -7 -33 -10 -40 -7
-22 8 -71 24 -77 33 -12 49 4 54 56 8 76 59 120 171 143 33 8 33 14 2 -148
-14 -71 -22 -132 -19 -137 8 -14 150 -11 161 4 6 6 17 50 27 97 9 46 21 89 27
95 5 5 74 13 152 16 182 8 221 22 303 103 77 77 107 147 108 256 2 152 -73
226 -242 237 l-79 6 -6 191 c-6 217 -22 323 -73 475 -19 57 -33 105 -32 107 2
1 208 6 458 10 492 7 589 2 782 -41 568 -127 903 -550 901 -1140 0 -173 -17
-255 -78 -374 -31 -63 -33 -71 -15 -61 l21 11 -3 -638 -3 -638 -27 -46 c-62
-105 -195 -161 -416 -175 l-107 -7 22 24 c30 33 53 91 53 134 0 104 -59 252
-115 290 -18 12 -44 48 -65 90 -40 79 -88 120 -130 110 -14 -3 -41 -23 -61
-45 -27 -30 -44 -40 -67 -40 -34 0 -85 -37 -113 -85 -19 -30 -19 -27 -19 248
0 173 -4 286 -10 298 -24 44 -80 13 -80 -44 0 -24 -2 -24 -151 -37 -137 -11
-284 -9 -346 7 -17 4 -23 13 -25 45 -3 48 -27 70 -55 52 -17 -10 -18 -45 -23
-430 l-5 -419 -27 -46 c-62 -105 -195 -161 -414 -175 l-106 -7 34 47 c30 43
33 54 32 114 0 73 -31 186 -64 240 -11 18 -34 41 -50 50 -16 9 -35 31 -41 47
-24 61 -70 123 -104 139 -42 20 -73 10 -112 -38 -22 -28 -35 -36 -60 -36 -36
0 -107 -55 -118 -91 -20 -63 -25 22 -27 484 l-3 502 -27 3 c-23 3 -30 -2 -38
-23 -8 -21 -15 -25 -28 -20 -9 5 -66 22 -127 38 -60 17 -111 31 -112 32 -2 1
21 26 50 56 28 30 64 77 79 104 36 68 74 204 83 296 7 74 8 77 41 92 38 19 89
89 80 112 -9 25 -33 17 -56 -20 -44 -71 -125 -86 -184 -34 -34 30 -66 35 -73
13 -6 -19 61 -75 105 -87 48 -13 48 -12 31 -120 -25 -159 -96 -298 -186 -361
-36 -25 -55 -30 -131 -36 -50 -4 -107 -13 -129 -20 -116 -39 -188 -129 -227
-285 -14 -55 -44 -358 -79 -798 -16 -192 -22 -206 -102 -247 -42 -20 -64 -24
-140 -25 -77 0 -97 4 -139 25 -97 49 -90 -4 -99 698 -8 672 -2 1363 14 1510
23 216 75 340 188 453 64 64 93 85 181 127 120 58 242 93 420 121 196 31 202
31 196 7 -6 -24 10 -46 34 -46 9 0 82 41 161 90 154 97 311 181 393 212 77 28
204 21 279 -15z m2935 -399 c7 -7 12 -19 12 -29 0 -13 -15 -17 -82 -22 -46 -3
-98 -9 -117 -13 -47 -10 -34 8 32 46 56 32 132 41 155 18z m72 -129 c25 -5 56
-17 68 -25 22 -15 23 -17 7 -34 -28 -31 -97 -43 -208 -37 -107 5 -247 32 -247
47 0 13 86 33 220 54 50 7 116 5 160 -5z m-488 -54 c-4 -25 -4 -25 -121 -25
-112 1 -117 2 -134 25 l-18 25 139 0 139 0 -5 -25z m371 -120 c74 -6 87 -10
87 -25 0 -55 -95 -60 -189 -9 -79 42 -90 60 -29 49 24 -5 82 -11 131 -15z
m-2442 -385 c70 -19 93 -70 77 -163 -13 -71 -49 -131 -92 -151 -81 -38 -248
-48 -254 -14 -2 9 18 36 48 64 50 47 130 185 130 224 0 50 21 59 91 40z
m-1111 -847 c47 -13 96 -30 110 -36 l25 -12 0 -413 c0 -226 -3 -412 -6 -412
-3 0 -11 19 -18 43 -7 23 -23 58 -36 77 -13 19 -33 61 -45 93 -41 111 -95 145
-145 91 l-25 -27 0 317 0 316 28 -6 c15 -4 65 -18 112 -31z m1870 -675 l-1
-213 -17 51 c-10 28 -28 63 -40 79 -12 15 -22 33 -22 39 0 20 -51 121 -72 144
-29 30 -63 28 -94 -5 l-25 -27 3 59 3 60 105 7 c58 4 114 9 125 11 11 3 23 5
28 6 4 0 7 -95 7 -211z m-1901 86 c11 -14 28 -46 37 -70 l17 -46 -26 -21 c-61
-52 -109 -233 -83 -315 17 -52 -58 3 -85 62 -11 24 -19 64 -19 97 0 90 48 251
92 307 17 20 45 14 67 -14z m1732 -5 c23 -23 58 -95 59 -121 0 -9 -8 -19 -18
-22 -24 -8 -56 -66 -77 -138 -16 -57 -22 -168 -10 -188 11 -17 -11 -11 -40 12
-37 29 -65 93 -65 151 0 97 49 258 92 305 26 27 33 27 59 1z m589 -165 c18
-21 41 -57 51 -81 l19 -45 -33 -38 c-77 -90 -111 -299 -59 -369 12 -16 22 -32
22 -35 0 -15 -71 -16 -106 -1 -53 22 -79 48 -105 108 -18 44 -21 63 -16 132 9
126 66 285 122 341 35 35 67 31 105 -12z m-2212 -52 c28 -64 46 -164 38 -206
-7 -39 -47 -92 -75 -101 -29 -9 -69 12 -92 47 -17 28 -20 45 -16 108 5 81 37
180 69 212 18 18 21 19 38 3 10 -9 27 -37 38 -63z m472 22 c18 -21 41 -57 51
-82 l19 -44 -24 -23 c-83 -77 -124 -309 -68 -385 24 -32 25 -30 -22 -44 -22
-7 -81 12 -111 36 -43 33 -75 112 -75 183 0 112 55 291 111 358 41 50 75 50
119 1z m1262 -24 c15 -30 33 -87 40 -127 11 -66 10 -77 -8 -118 -36 -87 -103
-97 -152 -25 -22 31 -24 43 -19 110 8 114 57 225 96 218 9 -2 28 -28 43 -58z
m298 6 c0 -3 -14 -47 -31 -98 -40 -117 -50 -251 -25 -312 23 -54 21 -58 -21
-41 -73 31 -105 80 -104 159 1 97 66 241 124 277 30 18 57 25 57 15z m-1740
-35 c0 -5 -8 -29 -19 -53 -47 -111 -65 -285 -36 -355 18 -42 15 -48 -21 -39
-40 10 -91 66 -103 114 -29 106 82 342 160 342 10 0 19 -4 19 -9z m2068 -113
c34 -55 63 -158 65 -224 0 -52 -4 -70 -26 -103 -36 -54 -91 -72 -138 -45 -17
11 -41 32 -53 47 -48 64 -12 268 61 345 37 39 58 34 91 -20z m-1762 -3 c45
-45 84 -163 84 -255 0 -69 -25 -118 -73 -143 -31 -16 -42 -17 -71 -7 -97 32
-119 135 -65 298 20 60 69 132 90 132 6 0 21 -11 35 -25z m-534 -157 c2 -29 3
-54 2 -56 -3 -6 -94 21 -94 28 0 4 11 12 25 18 14 7 30 23 37 37 17 38 26 30
30 -27z m1752 -45 c5 -16 3 -23 -6 -23 -15 0 -88 20 -88 24 0 1 17 21 38 42
l37 40 6 -30 c3 -17 9 -41 13 -53z"/>
<path d="M611 3599 c-70 -12 -128 -38 -174 -78 -42 -37 -54 -66 -37 -86 21
-25 50 -17 102 29 78 71 140 91 276 90 78 -1 112 2 109 10 -10 31 -180 52
-276 35z"/>
<path d="M2856 3447 c-14 -10 -35 -99 -92 -387 -40 -206 -74 -387 -74 -402 l0
-28 74 0 c48 0 77 5 84 13 6 7 29 107 52 222 49 249 46 245 154 244 39 0 87
-5 106 -12 33 -11 35 -15 38 -58 2 -26 -11 -118 -27 -205 -43 -221 -47 -204
48 -204 44 0 83 5 86 10 9 14 85 408 85 439 0 14 -9 43 -20 66 -31 64 -68 77
-232 83 -100 3 -141 8 -149 18 -9 11 -7 36 6 105 15 77 16 92 4 100 -21 13
-123 11 -143 -4z"/>
<path d="M761 3354 c-186 -50 -252 -175 -162 -307 44 -65 70 -80 135 -79 60 0
97 16 140 59 48 48 60 116 31 172 -26 51 -115 76 -179 51 -39 -14 -31 3 11 25
43 23 103 73 103 86 0 12 -14 11 -79 -7z m93 -145 c38 -33 57 -92 37 -112 -8
-8 -11 -5 -11 10 0 12 -12 35 -26 52 -31 37 -81 42 -109 11 -17 -19 -17 -20 9
-31 31 -15 33 -25 6 -39 -43 -23 -14 -60 53 -69 l41 -6 -29 -20 c-22 -15 -47
-20 -93 -20 -59 0 -66 2 -93 33 -46 51 -37 124 23 179 31 29 65 42 115 42 33
1 50 -5 77 -30z m11 -80 c8 -23 -1 -39 -20 -39 -16 0 -31 43 -21 59 9 15 34 2
41 -20z"/>
<path d="M3551 3193 c-12 -48 -151 -755 -151 -771 0 -17 154 -16 167 1 6 6 16
47 23 90 19 115 14 111 182 118 126 4 150 8 199 31 112 51 177 133 205 257 27
120 -7 226 -86 269 -59 33 -132 42 -335 42 l-194 0 -10 -37z m371 -93 c53 -15
78 -51 78 -115 0 -104 -51 -187 -130 -214 -19 -7 -73 -15 -119 -18 -114 -8
-115 -7 -86 140 13 61 26 129 29 149 11 59 26 68 114 68 42 0 94 -5 114 -10z"/>
</g>
<g transform="translate(0.000000,512.000000) scale(0.100000,-0.100000)"
fill="#505e9b" stroke="none">
<path d="M1303 4303 c15 -2 39 -2 55 0 15 2 2 4 -28 4 -30 0 -43 -2 -27 -4z"/>
<path d="M1768 4293 c18 -2 45 -2 60 0 15 2 0 4 -33 4 -33 0 -45 -2 -27 -4z"/>
<path d="M1278 4223 c7 -3 16 -2 19 1 4 3 -2 6 -13 5 -11 0 -14 -3 -6 -6z"/>
<path d="M1368 4223 c6 -2 18 -2 25 0 6 3 1 5 -13 5 -14 0 -19 -2 -12 -5z"/>
<path d="M1718 4213 c7 -3 16 -2 19 1 4 3 -2 6 -13 5 -11 0 -14 -3 -6 -6z"/>
<path d="M1838 4213 c7 -3 16 -2 19 1 4 3 -2 6 -13 5 -11 0 -14 -3 -6 -6z"/>
<path d="M2095 4170 c10 -11 20 -20 23 -20 3 0 -3 9 -13 20 -10 11 -20 20 -23
20 -3 0 3 -9 13 -20z"/>
<path d="M989 4153 c-13 -16 -12 -17 4 -4 9 7 17 15 17 17 0 8 -8 3 -21 -13z"/>
<path d="M904 4078 l-29 -33 33 29 c17 17 32 31 32 33 0 8 -8 1 -36 -29z"/>
<path d="M1034 4088 l-19 -23 23 19 c21 18 27 26 19 26 -2 0 -12 -10 -23 -22z"/>
<path d="M2883 4093 c48 -2 126 -2 175 0 48 1 8 3 -88 3 -96 0 -136 -2 -87 -3z"/>
<path d="M2353 4083 c32 -2 81 -2 110 0 29 2 3 3 -58 3 -60 0 -84 -1 -52 -3z"/>
<path d="M3243 4083 c9 -2 23 -2 30 0 6 3 -1 5 -18 5 -16 0 -22 -2 -12 -5z"/>
<path d="M980 4039 c0 -5 9 -9 20 -9 11 0 20 2 20 4 0 2 -9 6 -20 9 -11 3 -20
1 -20 -4z"/>
<path d="M1088 4043 c12 -2 30 -2 40 0 9 3 -1 5 -23 4 -22 0 -30 -2 -17 -4z"/>
<path d="M2668 4013 c39 -2 105 -2 145 0 39 1 7 3 -73 3 -80 0 -112 -2 -72 -3z"/>
<path d="M3123 4013 c15 -2 39 -2 55 0 15 2 2 4 -28 4 -30 0 -43 -2 -27 -4z"/>
<path d="M2248 4003 c17 -2 47 -2 65 0 17 2 3 4 -33 4 -36 0 -50 -2 -32 -4z"/>
<path d="M3268 4003 c6 -2 18 -2 25 0 6 3 1 5 -13 5 -14 0 -19 -2 -12 -5z"/>
<path d="M3348 3993 c7 -3 16 -2 19 1 4 3 -2 6 -13 5 -11 0 -14 -3 -6 -6z"/>
<path d="M993 3953 c9 -2 23 -2 30 0 6 3 -1 5 -18 5 -16 0 -22 -2 -12 -5z"/>
<path d="M918 3943 c6 -2 18 -2 25 0 6 3 1 5 -13 5 -14 0 -19 -2 -12 -5z"/>
<path d="M858 3933 c7 -3 16 -2 19 1 4 3 -2 6 -13 5 -11 0 -14 -3 -6 -6z"/>
<path d="M798 3923 c7 -3 16 -2 19 1 4 3 -2 6 -13 5 -11 0 -14 -3 -6 -6z"/>
<path d="M748 3913 c7 -3 16 -2 19 1 4 3 -2 6 -13 5 -11 0 -14 -3 -6 -6z"/>
<path d="M3741 3876 c2 -2 15 -9 29 -15 24 -11 24 -11 6 3 -16 13 -49 24 -35
12z"/>
<path d="M4798 3873 c12 -2 32 -2 45 0 12 2 2 4 -23 4 -25 0 -35 -2 -22 -4z"/>
<path d="M244 3778 l-19 -23 23 19 c21 18 27 26 19 26 -2 0 -12 -10 -23 -22z"/>
<path d="M4851 3797 c2 -1 13 -9 24 -17 19 -14 19 -14 6 3 -7 9 -18 17 -24 17
-6 0 -8 -1 -6 -3z"/>
<path d="M3930 3766 c0 -2 8 -10 18 -17 15 -13 16 -12 3 4 -13 16 -21 21 -21
13z"/>
<path d="M2211 3744 c0 -11 3 -14 6 -6 3 7 2 16 -1 19 -3 4 -6 -2 -5 -13z"/>
<path d="M319 3733 c-13 -16 -12 -17 4 -4 16 13 21 21 13 21 -2 0 -10 -8 -17
-17z"/>
<path d="M4670 3735 c-10 -13 -9 -15 11 -14 13 0 18 3 11 6 -6 2 -10 9 -6 14
9 15 -2 10 -16 -6z"/>
<path d="M4838 3743 c12 -2 30 -2 40 0 9 3 -1 5 -23 4 -22 0 -30 -2 -17 -4z"/>
<path d="M2301 3724 c0 -11 3 -14 6 -6 3 7 2 16 -1 19 -3 4 -6 -2 -5 -13z"/>
<path d="M4738 3733 c6 -2 18 -2 25 0 6 3 1 5 -13 5 -14 0 -19 -2 -12 -5z"/>
<path d="M4040 3665 c35 -36 67 -65 69 -65 3 0 -24 29 -59 65 -35 36 -67 65
-69 65 -3 0 24 -29 59 -65z"/>
<path d="M169 3703 c-13 -16 -12 -17 4 -4 9 7 17 15 17 17 0 8 -8 3 -21 -13z"/>
<path d="M3862 3708 c16 -14 16 -16 0 -39 -9 -13 -24 -33 -34 -43 -10 -11 -18
-26 -18 -33 0 -7 -4 -13 -9 -13 -5 0 -28 -27 -52 -60 -24 -33 -47 -60 -51 -60
-5 0 -8 -5 -8 -11 0 -21 -110 -144 -168 -186 -19 -15 -33 -37 -41 -65 -11 -43
-27 -77 -33 -68 -2 3 -13 23 -24 45 -20 37 -74 85 -97 85 -5 0 5 -10 24 -23
18 -12 44 -37 56 -55 39 -59 39 -101 -7 -336 -40 -204 -44 -218 -72 -241 -26
-22 -39 -25 -114 -25 -138 0 -143 15 -94 257 17 81 29 156 29 168 -1 20 -1 20
-6 0 -2 -11 -20 -96 -39 -190 -32 -152 -48 -210 -64 -225 -3 -3 -32 -41 -65
-85 -32 -44 -65 -87 -72 -95 -31 -36 -80 -99 -103 -133 -14 -20 -28 -37 -32
-37 -5 0 -8 -6 -8 -13 0 -8 -11 -24 -25 -37 -14 -13 -25 -29 -25 -36 0 -6 -7
-18 -17 -25 -9 -8 -38 -43 -65 -79 -45 -59 -48 -65 -29 -68 29 -5 51 -40 50
-82 -1 -34 -2 -34 -9 8 -3 24 -13 48 -21 53 -21 13 -45 11 -58 -5 -7 -8 -19
-12 -29 -9 -12 3 -33 -17 -72 -73 -30 -42 -64 -87 -75 -100 -11 -12 -45 -57
-75 -98 -30 -42 -58 -76 -62 -76 -4 0 -8 -6 -8 -13 0 -7 -12 -27 -27 -44 -16
-17 -50 -63 -78 -102 -27 -38 -53 -70 -57 -71 -5 0 -8 -6 -8 -14 0 -8 -14 -26
-30 -39 -17 -14 -26 -28 -21 -31 10 -7 44 -106 38 -113 -3 -2 -8 8 -11 23 -4
14 -9 24 -11 22 -2 -2 3 -26 11 -53 18 -58 26 -217 11 -208 -6 4 -8 -1 -4 -11
4 -9 3 -15 -2 -12 -4 3 -18 -9 -31 -26 l-23 -31 106 7 c220 14 353 70 415 175
l27 46 5 419 c5 385 6 420 23 430 28 18 52 -4 55 -52 2 -32 8 -41 25 -45 62
-16 209 -18 346 -7 149 13 151 13 151 37 0 38 18 63 45 63 14 0 29 -8 35 -19
6 -12 10 -125 10 -298 0 -275 0 -278 19 -248 28 48 79 85 113 85 23 0 40 10
67 40 20 22 47 42 61 45 42 10 90 -31 130 -110 21 -42 47 -78 65 -90 56 -38
115 -186 115 -290 0 -43 -23 -101 -53 -134 l-22 -24 107 7 c221 14 354 70 416
175 l27 46 3 638 3 638 -21 -11 c-18 -10 -16 -2 15 61 61 119 78 201 78 374 0
163 -15 266 -60 409 -24 78 -97 236 -109 236 -3 0 -2 -6 2 -12 4 -7 -24 17
-62 53 -38 36 -87 79 -109 96 -41 31 -194 116 -163 91z m133 -439 c82 -15 150
-52 185 -100 43 -60 53 -100 48 -198 -5 -109 -36 -179 -114 -261 -92 -96 -188
-130 -370 -130 l-92 0 -12 -67 c-16 -88 -33 -129 -59 -143 -12 -6 -57 -10
-108 -8 -80 3 -87 5 -106 30 l-20 26 72 374 c85 438 84 434 112 464 22 24 26
24 214 24 105 0 218 -5 250 -11z m-1458 -1531 c-1 -40 -3 -10 -3 67 0 77 1
110 3 73 2 -37 2 -100 0 -140z m156 125 c-7 -2 -19 -2 -25 0 -7 3 -2 5 12 5
14 0 19 -2 13 -5z m-626 -725 c-3 -8 -6 -5 -6 6 -1 11 2 17 5 13 3 -3 4 -12 1
-19z m10 -40 c-3 -8 -6 -5 -6 6 -1 11 2 17 5 13 3 -3 4 -12 1 -19z"/>
<path d="M3658 3233 c45 -2 119 -2 165 0 45 1 8 3 -83 3 -91 0 -128 -2 -82 -3z"/>
<path d="M3746 3048 c-8 -22 -46 -220 -46 -236 0 -12 12 -14 69 -9 101 8 138
27 162 81 24 54 30 139 11 158 -19 19 -190 25 -196 6z"/>
<path d="M3753 2753 c9 -2 23 -2 30 0 6 3 -1 5 -18 5 -16 0 -22 -2 -12 -5z"/>
<path d="M3683 2623 c26 -2 67 -2 90 0 23 2 2 3 -48 3 -49 0 -68 -1 -42 -3z"/>
<path d="M3443 2403 c20 -2 54 -2 75 0 20 2 3 4 -38 4 -41 0 -58 -2 -37 -4z"/>
<path d="M2221 3694 c0 -11 3 -14 6 -6 3 7 2 16 -1 19 -3 4 -6 -2 -5 -13z"/>
<path d="M2312 3660 c0 -14 2 -19 5 -12 2 6 2 18 0 25 -3 6 -5 1 -5 -13z"/>
<path d="M4838 3663 c18 -2 45 -2 60 0 15 2 0 4 -33 4 -33 0 -45 -2 -27 -4z"/>
<path d="M229 3643 c-13 -16 -12 -17 4 -4 9 7 17 15 17 17 0 8 -8 3 -21 -13z"/>
<path d="M4738 3653 c6 -2 18 -2 25 0 6 3 1 5 -13 5 -14 0 -19 -2 -12 -5z"/>
<path d="M2232 3630 c0 -14 2 -19 5 -12 2 6 2 18 0 25 -3 6 -5 1 -5 -13z"/>
<path d="M5010 3636 c0 -2 8 -10 18 -17 15 -13 16 -12 3 4 -13 16 -21 21 -21
13z"/>
<path d="M4207 3605 c17 -23 22 -24 134 -25 117 0 117 0 121 25 l5 25 -139 0
-139 0 18 -25z"/>
<path d="M623 3603 c9 -2 23 -2 30 0 6 3 -1 5 -18 5 -16 0 -22 -2 -12 -5z"/>
<path d="M758 3603 c6 -2 18 -2 25 0 6 3 1 5 -13 5 -14 0 -19 -2 -12 -5z"/>
<path d="M2322 3575 c0 -16 2 -22 5 -12 2 9 2 23 0 30 -3 6 -5 -1 -5 -18z"/>
<path d="M180 3570 c-6 -11 -8 -20 -6 -20 3 0 10 9 16 20 6 11 8 20 6 20 -3 0
-10 -9 -16 -20z"/>
<path d="M4125 3570 c10 -11 20 -20 23 -20 3 0 -3 9 -13 20 -10 11 -20 20 -23
20 -3 0 3 -9 13 -20z"/>
<path d="M4648 3583 c7 -3 16 -2 19 1 4 3 -2 6 -13 5 -11 0 -14 -3 -6 -6z"/>
<path d="M886 3567 c3 -10 9 -15 12 -12 3 3 0 11 -7 18 -10 9 -11 8 -5 -6z"/>
<path d="M4698 3573 c6 -2 18 -2 25 0 6 3 1 5 -13 5 -14 0 -19 -2 -12 -5z"/>
<path d="M2243 3535 c0 -22 2 -30 4 -17 2 12 2 30 0 40 -3 9 -5 -1 -4 -23z"/>
<path d="M4773 3563 c9 -2 25 -2 35 0 9 3 1 5 -18 5 -19 0 -27 -2 -17 -5z"/>
<path d="M4918 3563 c6 -2 18 -2 25 0 6 3 1 5 -13 5 -14 0 -19 -2 -12 -5z"/>
<path d="M703 3553 c9 -2 25 -2 35 0 9 3 1 5 -18 5 -19 0 -27 -2 -17 -5z"/>
<path d="M783 3553 c9 -2 23 -2 30 0 6 3 -1 5 -18 5 -16 0 -22 -2 -12 -5z"/>
<path d="M843 3543 c9 -2 23 -2 30 0 6 3 -1 5 -18 5 -16 0 -22 -2 -12 -5z"/>
<path d="M419 3513 c-13 -16 -12 -17 4 -4 16 13 21 21 13 21 -2 0 -10 -8 -17
-17z"/>
<path d="M4320 3503 c108 -7 228 -7 223 0 -2 4 -64 6 -136 5 -73 -1 -112 -3
-87 -5z"/>
<path d="M4995 3499 c-4 -6 -5 -12 -2 -15 2 -3 7 2 10 11 7 17 1 20 -8 4z"/>
<path d="M4698 3493 c6 -2 18 -2 25 0 6 3 1 5 -13 5 -14 0 -19 -2 -12 -5z"/>
<path d="M490 3456 c-18 -19 -42 -37 -54 -39 -21 -4 -21 -4 -1 -6 12 0 37 16
60 39 21 22 37 40 34 40 -3 0 -20 -16 -39 -34z"/>
<path d="M2334 3380 c0 -63 1 -89 3 -57 2 31 2 83 0 115 -2 31 -3 5 -3 -58z"/>
<path d="M4778 3483 c12 -2 30 -2 40 0 9 3 -1 5 -23 4 -22 0 -30 -2 -17 -4z"/>
<path d="M4580 3456 c0 -2 8 -10 18 -17 15 -13 16 -12 3 4 -13 16 -21 21 -21
13z"/>
<path d="M2253 3360 c0 -36 2 -50 4 -32 2 17 2 47 0 65 -2 17 -4 3 -4 -33z"/>
<path d="M4828 3413 c6 -2 18 -2 25 0 6 3 1 5 -13 5 -14 0 -19 -2 -12 -5z"/>
<path d="M31 3394 c0 -11 3 -14 6 -6 3 7 2 16 -1 19 -3 4 -6 -2 -5 -13z"/>
<path d="M788 3363 c7 -3 16 -2 19 1 4 3 -2 6 -13 5 -11 0 -14 -3 -6 -6z"/>
<path d="M821 3336 l-24 -31 28 27 c16 15 27 29 24 31 -2 3 -15 -10 -28 -27z"/>
<path d="M4788 3343 c7 -3 16 -2 19 1 4 3 -2 6 -13 5 -11 0 -14 -3 -6 -6z"/>
<path d="M3173 3283 c9 -2 25 -2 35 0 9 3 1 5 -18 5 -19 0 -27 -2 -17 -5z"/>
<path d="M12 3260 c0 -14 2 -19 5 -12 2 6 2 18 0 25 -3 6 -5 1 -5 -13z"/>
<path d="M91 3264 c0 -11 3 -14 6 -6 3 7 2 16 -1 19 -3 4 -6 -2 -5 -13z"/>
<path d="M3258 3273 c7 -3 16 -2 19 1 4 3 -2 6 -13 5 -11 0 -14 -3 -6 -6z"/>
<path d="M710 3260 c-20 -12 -10 -19 14 -10 11 3 15 9 10 13 -6 3 -16 2 -24
-3z"/>
<path d="M773 3263 c9 -2 23 -2 30 0 6 3 -1 5 -18 5 -16 0 -22 -2 -12 -5z"/>
<path d="M738 3233 c7 -3 16 -2 19 1 4 3 -2 6 -13 5 -11 0 -14 -3 -6 -6z"/>
<path d="M798 3233 c7 -3 16 -2 19 1 4 3 -2 6 -13 5 -11 0 -14 -3 -6 -6z"/>
<path d="M2343 3233 c9 -2 23 -2 30 0 6 3 -1 5 -18 5 -16 0 -22 -2 -12 -5z"/>
<path d="M3038 3233 c23 -2 59 -2 80 0 20 2 1 4 -43 4 -44 0 -61 -2 -37 -4z"/>
<path d="M2242 3205 c0 -16 2 -22 5 -12 2 9 2 23 0 30 -3 6 -5 -1 -5 -18z"/>
<path d="M552 3160 c0 -19 2 -27 5 -17 2 9 2 25 0 35 -3 9 -5 1 -5 -18z"/>
<path d="M739 3173 c-13 -16 -12 -17 4 -4 9 7 17 15 17 17 0 8 -8 3 -21 -13z"/>
<path d="M82 3155 c0 -16 2 -22 5 -12 2 9 2 23 0 30 -3 6 -5 -1 -5 -18z"/>
<path d="M849 3167 c6 -8 7 -18 3 -22 -4 -5 -1 -5 6 -1 10 6 10 11 1 22 -6 8
-14 14 -16 14 -3 0 0 -6 6 -13z"/>
<path d="M923 3135 c0 -22 2 -30 4 -17 2 12 2 30 0 40 -3 9 -5 -1 -4 -23z"/>
<path d="M3 3105 c0 -27 2 -38 4 -22 2 15 2 37 0 50 -2 12 -4 0 -4 -28z"/>
<path d="M891 3138 c0 -9 -4 -25 -7 -35 -5 -14 -4 -15 5 -7 7 7 11 22 8 35 -2
13 -5 16 -6 7z"/>
<path d="M3018 3103 c23 -2 59 -2 80 0 20 2 1 4 -43 4 -44 0 -61 -2 -37 -4z"/>
<path d="M570 3076 c0 -2 8 -10 18 -17 15 -13 16 -12 3 4 -13 16 -21 21 -21
13z"/>
<path d="M1430 3020 c-6 -11 -8 -20 -6 -20 3 0 10 9 16 20 6 11 8 20 6 20 -3
0 -10 -9 -16 -20z"/>
<path d="M4432 3020 c0 -14 2 -19 5 -12 2 6 2 18 0 25 -3 6 -5 1 -5 -13z"/>
<path d="M790 3026 c0 -8 51 -13 56 -5 3 5 -9 9 -25 9 -17 0 -31 -2 -31 -4z"/>
<path d="M2981 3014 c0 -11 3 -14 6 -6 3 7 2 16 -1 19 -3 4 -6 -2 -5 -13z"/>
<path d="M610 3016 c0 -2 8 -10 18 -17 15 -13 16 -12 3 4 -13 16 -21 21 -21
13z"/>
<path d="M849 3003 c-13 -16 -12 -17 4 -4 9 7 17 15 17 17 0 8 -8 3 -21 -13z"/>
<path d="M1399 2973 c-13 -16 -12 -17 4 -4 9 7 17 15 17 17 0 8 -8 3 -21 -13z"/>
<path d="M2971 2964 c0 -11 3 -14 6 -6 3 7 2 16 -1 19 -3 4 -6 -2 -5 -13z"/>
<path d="M698 2963 c7 -3 16 -2 19 1 4 3 -2 6 -13 5 -11 0 -14 -3 -6 -6z"/>
<path d="M748 2963 c6 -2 18 -2 25 0 6 3 1 5 -13 5 -14 0 -19 -2 -12 -5z"/>
<path d="M4444 2840 c0 -63 1 -89 3 -57 2 31 2 83 0 115 -2 31 -3 5 -3 -58z"/>
<path d="M2139 2923 c-13 -16 -12 -17 4 -4 9 7 17 15 17 17 0 8 -8 3 -21 -13z"/>
<path d="M1313 2855 c0 -22 2 -30 4 -17 2 12 2 30 0 40 -3 9 -5 -1 -4 -23z"/>
<path d="M2079 2863 c-13 -16 -12 -17 4 -4 9 7 17 15 17 17 0 8 -8 3 -21 -13z"/>
<path d="M2179 2843 l-24 -28 28 24 c25 23 32 31 24 31 -2 0 -14 -12 -28 -27z"/>
<path d="M2952 2850 c0 -14 2 -19 5 -12 2 6 2 18 0 25 -3 6 -5 1 -5 -13z"/>
<path d="M1362 2795 c0 -16 2 -22 5 -12 2 9 2 23 0 30 -3 6 -5 -1 -5 -18z"/>
<path d="M2942 2800 c0 -14 2 -19 5 -12 2 6 2 18 0 25 -3 6 -5 1 -5 -13z"/>
<path d="M75 2425 c0 -203 1 -285 2 -182 2 104 2 270 0 370 -1 100 -2 16 -2
-188z"/>
<path d="M2646 2773 c-6 -14 -5 -15 5 -6 7 7 10 15 7 18 -3 3 -9 -2 -12 -12z"/>
<path d="M1301 2764 c0 -11 3 -14 6 -6 3 7 2 16 -1 19 -3 4 -6 -2 -5 -13z"/>
<path d="M1848 2773 c7 -3 16 -2 19 1 4 3 -2 6 -13 5 -11 0 -14 -3 -6 -6z"/>
<path d="M2926 2734 c-4 -20 -5 -38 -3 -40 3 -3 8 11 11 32 4 20 5 38 3 40 -3
3 -8 -11 -11 -32z"/>
<path d="M2223 2753 c9 -2 23 -2 30 0 6 3 -1 5 -18 5 -16 0 -22 -2 -12 -5z"/>
<path d="M1745 2740 c-3 -6 1 -7 9 -4 18 7 21 14 7 14 -6 0 -13 -4 -16 -10z"/>
<path d="M2544 2728 l-19 -23 23 19 c21 18 27 26 19 26 -2 0 -12 -10 -23 -22z"/>
<path d="M1291 2714 c0 -11 3 -14 6 -6 3 7 2 16 -1 19 -3 4 -6 -2 -5 -13z"/>
<path d="M1694 2698 l-29 -33 33 29 c30 28 37 36 29 36 -2 0 -16 -15 -33 -32z"/>
<path d="M1341 2684 c0 -11 3 -14 6 -6 3 7 2 16 -1 19 -3 4 -6 -2 -5 -13z"/>
<path d="M2911 2663 c-1 -12 -13 -35 -27 -52 -23 -28 -32 -31 -87 -33 l-62 -2
57 -3 c41 -3 64 1 82 12 27 18 51 67 43 87 -3 7 -6 3 -6 -9z"/>
<path d="M4431 2664 c0 -11 3 -14 6 -6 3 7 2 16 -1 19 -3 4 -6 -2 -5 -13z"/>
<path d="M2681 2654 c0 -11 3 -14 6 -6 3 7 2 16 -1 19 -3 4 -6 -2 -5 -13z"/>
<path d="M3131 2654 c0 -11 3 -14 6 -6 3 7 2 16 -1 19 -3 4 -6 -2 -5 -13z"/>
<path d="M1735 2619 c-4 -6 -5 -12 -2 -15 2 -3 7 2 10 11 7 17 1 20 -8 4z"/>
<path d="M2153 2623 c26 -2 67 -2 90 0 23 2 2 3 -48 3 -49 0 -68 -1 -42 -3z"/>
<path d="M2727 2623 c18 -2 50 -2 70 0 21 2 7 4 -32 4 -38 0 -55 -2 -38 -4z"/>
<path d="M3177 2623 c18 -2 50 -2 70 0 21 2 7 4 -32 4 -38 0 -55 -2 -38 -4z"/>
<path d="M1641 2594 c0 -11 3 -14 6 -6 3 7 2 16 -1 19 -3 4 -6 -2 -5 -13z"/>
<path d="M1723 2555 c0 -22 2 -30 4 -17 2 12 2 30 0 40 -3 9 -5 -1 -4 -23z"/>
<path d="M1641 2534 c0 -11 3 -14 6 -6 3 7 2 16 -1 19 -3 4 -6 -2 -5 -13z"/>
<path d="M1159 2453 l-34 -38 38 34 c34 33 42 41 34 41 -2 0 -19 -17 -38 -37z"/>
<path d="M1199 2413 l-24 -28 28 24 c25 23 32 31 24 31 -2 0 -14 -12 -28 -27z"/>
<path d="M1879 2407 c4 -4 39 -7 77 -5 l69 3 -77 5 c-42 3 -73 1 -69 -3z"/>
<path d="M993 2383 c15 -2 37 -2 50 0 12 2 0 4 -28 4 -27 0 -38 -2 -22 -4z"/>
<path d="M908 2373 c7 -3 16 -2 19 1 4 3 -2 6 -13 5 -11 0 -14 -3 -6 -6z"/>
<path d="M1150 2370 c0 -5 5 -10 11 -10 5 0 7 5 4 10 -3 6 -8 10 -11 10 -2 0
-4 -4 -4 -10z"/>
<path d="M1198 2353 c7 -3 16 -2 19 1 4 3 -2 6 -13 5 -11 0 -14 -3 -6 -6z"/>
<path d="M1448 2343 c7 -3 16 -2 19 1 4 3 -2 6 -13 5 -11 0 -14 -3 -6 -6z"/>
<path d="M1413 2323 c-4 -10 -11 -22 -17 -26 -7 -6 -6 -7 3 -5 13 4 37 48 25
48 -2 0 -8 -8 -11 -17z"/>
<path d="M1492 1828 c-1 -274 1 -498 6 -498 6 0 6 371 -1 820 -1 96 -4 -49 -5
-322z"/>
<path d="M968 2303 c18 -2 45 -2 60 0 15 2 0 4 -33 4 -33 0 -45 -2 -27 -4z"/>
<path d="M729 2283 c-13 -16 -12 -17 4 -4 9 7 17 15 17 17 0 8 -8 3 -21 -13z"/>
<path d="M1414 2050 c0 -85 2 -120 3 -77 2 42 2 112 0 155 -1 42 -3 7 -3 -78z"/>
<path d="M621 2044 c0 -11 3 -14 6 -6 3 7 2 16 -1 19 -3 4 -6 -2 -5 -13z"/>
<path d="M612 1975 c0 -16 2 -22 5 -12 2 9 2 23 0 30 -3 6 -5 -1 -5 -18z"/>
<path d="M691 1964 c0 -11 3 -14 6 -6 3 7 2 16 -1 19 -3 4 -6 -2 -5 -13z"/>
<path d="M602 1865 c0 -16 2 -22 5 -12 2 9 2 23 0 30 -3 6 -5 -1 -5 -18z"/>
<path d="M682 1860 c0 -14 2 -19 5 -12 2 6 2 18 0 25 -3 6 -5 1 -5 -13z"/>
<path d="M592 1760 c0 -19 2 -27 5 -17 2 9 2 25 0 35 -3 9 -5 1 -5 -18z"/>
<path d="M3115 1783 c-11 -2 -67 -7 -125 -11 l-105 -7 -3 -60 -3 -59 25 27
c31 33 65 35 94 5 21 -23 72 -124 72 -144 0 -6 10 -24 22 -39 12 -16 30 -51
40 -79 l17 -51 1 213 c0 116 -3 211 -7 211 -5 -1 -17 -3 -28 -6z"/>
<path d="M672 1760 c0 -14 2 -19 5 -12 2 6 2 18 0 25 -3 6 -5 1 -5 -13z"/>
<path d="M2688 1773 c6 -2 18 -2 25 0 6 3 1 5 -13 5 -14 0 -19 -2 -12 -5z"/>
<path d="M84 1440 c0 -173 2 -244 3 -157 2 86 2 228 0 315 -1 86 -3 15 -3
-158z"/>
<path d="M1208 1713 c7 -3 16 -2 19 1 4 3 -2 6 -13 5 -11 0 -14 -3 -6 -6z"/>
<path d="M1240 1706 c0 -2 8 -10 18 -17 15 -13 16 -12 3 4 -13 16 -21 21 -21
13z"/>
<path d="M583 1655 c0 -22 2 -30 4 -17 2 12 2 30 0 40 -3 9 -5 -1 -4 -23z"/>
<path d="M1179 1673 c-13 -17 -13 -17 6 -3 11 8 22 16 24 17 2 2 0 3 -6 3 -6
0 -17 -8 -24 -17z"/>
<path d="M1235 1670 c10 -11 20 -20 23 -20 3 0 -3 9 -13 20 -10 11 -20 20 -23
20 -3 0 3 -9 13 -20z"/>
<path d="M662 1650 c0 -19 2 -27 5 -17 2 9 2 25 0 35 -3 9 -5 1 -5 -18z"/>
<path d="M2919 1653 l-24 -28 30 25 c17 14 32 26 34 28 2 1 0 2 -6 2 -5 0 -20
-12 -34 -27z"/>
<path d="M3007 1605 c9 -19 18 -33 21 -31 4 5 -26 66 -33 66 -3 0 3 -16 12
-35z"/>
<path d="M573 1535 c0 -22 2 -30 4 -17 2 12 2 30 0 40 -3 9 -5 -1 -4 -23z"/>
<path d="M2866 1555 c-3 -9 -6 -22 -5 -28 0 -7 5 -1 10 12 5 13 8 26 5 28 -2
2 -6 -3 -10 -12z"/>
<path d="M652 1530 c0 -19 2 -27 5 -17 2 9 2 25 0 35 -3 9 -5 1 -5 -18z"/>
<path d="M1790 1523 c8 -3 22 -11 30 -17 13 -10 13 -9 1 7 -7 9 -21 17 -30 16
-13 0 -14 -1 -1 -6z"/>
<path d="M3015 1520 c-3 -6 1 -7 9 -4 18 7 21 14 7 14 -6 0 -13 -4 -16 -10z"/>
<path d="M1340 1516 c0 -2 8 -10 18 -17 15 -13 16 -12 3 4 -13 16 -21 21 -21
13z"/>
<path d="M1699 1493 l-24 -28 28 24 c25 23 32 31 24 31 -2 0 -14 -12 -28 -27z"/>
<path d="M3459 1503 c-13 -16 -12 -17 4 -4 16 13 21 21 13 21 -2 0 -10 -8 -17
-17z"/>
<path d="M2851 1494 c0 -11 3 -14 6 -6 3 7 2 16 -1 19 -3 4 -6 -2 -5 -13z"/>
<path d="M1719 1473 l-24 -28 28 24 c25 23 32 31 24 31 -2 0 -14 -12 -28 -27z"/>
<path d="M2974 1475 c-9 -14 -15 -27 -13 -30 3 -2 12 10 21 26 21 36 15 39 -8
4z"/>
<path d="M3050 1496 c0 -2 8 -10 18 -17 15 -13 16 -12 3 4 -13 16 -21 21 -21
13z"/>
<path d="M1101 1474 c0 -11 3 -14 6 -6 3 7 2 16 -1 19 -3 4 -6 -2 -5 -13z"/>
<path d="M1865 1456 c10 -14 19 -26 22 -26 7 0 -17 39 -28 46 -6 3 -3 -5 6
-20z"/>
<path d="M2995 1449 c-9 -17 -15 -33 -13 -35 3 -2 12 12 21 31 21 43 13 47 -8
4z"/>
<path d="M2841 1454 c0 -11 3 -14 6 -6 3 7 2 16 -1 19 -3 4 -6 -2 -5 -13z"/>
<path d="M563 1415 c0 -22 2 -30 4 -17 2 12 2 30 0 40 -3 9 -5 -1 -4 -23z"/>
<path d="M1628 1443 c7 -3 16 -2 19 1 4 3 -2 6 -13 5 -11 0 -14 -3 -6 -6z"/>
<path d="M3368 1443 c7 -3 16 -2 19 1 4 3 -2 6 -13 5 -11 0 -14 -3 -6 -6z"/>
<path d="M1092 1415 c0 -16 2 -22 5 -12 2 9 2 23 0 30 -3 6 -5 -1 -5 -18z"/>
<path d="M3090 1435 c0 -5 5 -17 10 -25 5 -8 10 -10 10 -5 0 6 -5 17 -10 25
-5 8 -10 11 -10 5z"/>
<path d="M1549 1403 l-24 -28 28 24 c25 23 32 31 24 31 -2 0 -14 -12 -28 -27z"/>
<path d="M3304 1408 l-19 -23 23 19 c12 11 22 21 22 23 0 8 -8 2 -26 -19z"/>
<path d="M642 1395 c0 -16 2 -22 5 -12 2 9 2 23 0 30 -3 6 -5 -1 -5 -18z"/>
<path d="M1618 1413 c6 -2 18 -2 25 0 6 3 1 5 -13 5 -14 0 -19 -2 -12 -5z"/>
<path d="M2833 1360 c0 -36 2 -50 4 -32 2 17 2 47 0 65 -2 17 -4 3 -4 -33z"/>
<path d="M1406 1401 c-4 -7 -5 -15 -2 -18 9 -9 19 4 14 18 -4 11 -6 11 -12 0z"/>
<path d="M1569 1383 l-24 -28 28 24 c25 23 32 31 24 31 -2 0 -14 -12 -28 -27z"/>
<path d="M1900 1395 c0 -5 5 -17 10 -25 5 -8 10 -10 10 -5 0 6 -5 17 -10 25
-5 8 -10 11 -10 5z"/>
<path d="M2966 1374 c-4 -14 -5 -28 -3 -31 3 -2 8 8 11 23 4 14 5 28 3 31 -3
2 -8 -8 -11 -23z"/>
<path d="M3111 1374 c0 -11 3 -14 6 -6 3 7 2 16 -1 19 -3 4 -6 -2 -5 -13z"/>
<path d="M3611 1346 l-24 -31 28 27 c16 15 27 29 24 31 -2 3 -15 -10 -28 -27z"/>
<path d="M2931 1354 c0 -11 3 -14 6 -6 3 7 2 16 -1 19 -3 4 -6 -2 -5 -13z"/>
<path d="M1886 1333 c-6 -14 -5 -15 5 -6 7 7 10 15 7 18 -3 3 -9 -2 -12 -12z"/>
<path d="M3122 1330 c0 -14 2 -19 5 -12 2 6 2 18 0 25 -3 6 -5 1 -5 -13z"/>
<path d="M1091 1324 c0 -11 3 -14 6 -6 3 7 2 16 -1 19 -3 4 -6 -2 -5 -13z"/>
<path d="M1211 1324 c0 -11 3 -14 6 -6 3 7 2 16 -1 19 -3 4 -6 -2 -5 -13z"/>
<path d="M1941 1338 c2 -2 18 -14 34 -28 l30 -25 -24 28 c-14 15 -29 27 -34
27 -6 0 -8 -1 -6 -2z"/>
<path d="M3680 1336 c0 -2 8 -10 18 -17 15 -13 16 -12 3 4 -13 16 -21 21 -21
13z"/>
<path d="M553 1285 c0 -22 2 -30 4 -17 2 12 2 30 0 40 -3 9 -5 -1 -4 -23z"/>
<path d="M1182 1295 c0 -16 2 -22 5 -12 2 9 2 23 0 30 -3 6 -5 -1 -5 -18z"/>
<path d="M2922 1290 c0 -19 2 -27 5 -17 2 9 2 25 0 35 -3 9 -5 1 -5 -18z"/>
<path d="M2952 1290 c0 -19 2 -27 5 -17 2 9 2 25 0 35 -3 9 -5 1 -5 -18z"/>
<path d="M1393 1270 c0 -25 2 -35 4 -22 2 12 2 32 0 45 -2 12 -4 2 -4 -23z"/>
<path d="M1940 1306 c0 -2 8 -10 18 -17 15 -13 16 -12 3 4 -13 16 -21 21 -21
13z"/>
<path d="M3133 1260 c0 -25 2 -35 4 -22 2 12 2 32 0 45 -2 12 -4 2 -4 -23z"/>
<path d="M632 1270 c0 -14 2 -19 5 -12 2 6 2 18 0 25 -3 6 -5 1 -5 -13z"/>
<path d="M3595 1279 c-4 -6 -5 -12 -2 -15 2 -3 7 2 10 11 7 17 1 20 -8 4z"/>
<path d="M2011 1260 c14 -31 19 -36 19 -24 0 6 -7 19 -16 30 -14 18 -14 18 -3
-6z"/>
<path d="M1591 1254 c0 -11 3 -14 6 -6 3 7 2 16 -1 19 -3 4 -6 -2 -5 -13z"/>
<path d="M1182 1240 c0 -14 2 -19 5 -12 2 6 2 18 0 25 -3 6 -5 1 -5 -13z"/>
<path d="M3351 1244 c0 -11 3 -14 6 -6 3 7 2 16 -1 19 -3 4 -6 -2 -5 -13z"/>
<path d="M2922 1225 c0 -16 2 -22 5 -12 2 9 2 23 0 30 -3 6 -5 -1 -5 -18z"/>
<path d="M2952 1225 c0 -16 2 -22 5 -12 2 9 2 23 0 30 -3 6 -5 -1 -5 -18z"/>
<path d="M3321 1234 c0 -11 3 -14 6 -6 3 7 2 16 -1 19 -3 4 -6 -2 -5 -13z"/>
<path d="M1581 1204 c0 -11 3 -14 6 -6 3 7 2 16 -1 19 -3 4 -6 -2 -5 -13z"/>
<path d="M3211 1204 c0 -11 3 -14 6 -6 3 7 2 16 -1 19 -3 4 -6 -2 -5 -13z"/>
<path d="M1185 1200 c-3 -5 -1 -10 4 -10 6 0 11 5 11 10 0 6 -2 10 -4 10 -3 0
-8 -4 -11 -10z"/>
<path d="M3342 1180 c0 -14 2 -19 5 -12 2 6 2 18 0 25 -3 6 -5 1 -5 -13z"/>
<path d="M542 1160 c0 -19 2 -27 5 -17 2 9 2 25 0 35 -3 9 -5 1 -5 -18z"/>
<path d="M1408 1150 c2 -22 6 -40 8 -40 2 0 4 18 4 40 0 22 -3 40 -8 40 -4 0
-6 -18 -4 -40z"/>
<path d="M3313 1135 c0 -33 2 -45 4 -27 2 18 2 45 0 60 -2 15 -4 0 -4 -33z"/>
<path d="M1245 1160 c10 -11 20 -20 23 -20 3 0 -3 9 -13 20 -10 11 -20 20 -23
20 -3 0 3 -9 13 -20z"/>
<path d="M1602 1160 c0 -14 2 -19 5 -12 2 6 2 18 0 25 -3 6 -5 1 -5 -13z"/>
<path d="M3118 1136 c-21 -21 -38 -41 -38 -42 0 -4 73 -24 88 -24 9 0 11 7 6
23 -4 12 -10 36 -13 53 l-6 30 -37 -40z"/>
<path d="M622 1145 c0 -16 2 -22 5 -12 2 9 2 23 0 30 -3 6 -5 -1 -5 -18z"/>
<path d="M1573 1110 c0 -36 2 -50 4 -32 2 17 2 47 0 65 -2 17 -4 3 -4 -33z"/>
<path d="M2985 1150 c10 -11 20 -20 23 -20 3 0 -3 9 -13 20 -10 11 -20 20 -23
20 -3 0 3 -9 13 -20z"/>
<path d="M3551 1154 c0 -11 3 -14 6 -6 3 7 2 16 -1 19 -3 4 -6 -2 -5 -13z"/>
<path d="M3521 1144 c0 -11 3 -14 6 -6 3 7 2 16 -1 19 -3 4 -6 -2 -5 -13z"/>
<path d="M2860 1147 c0 -2 15 -16 33 -33 l32 -29 -29 33 c-28 30 -36 37 -36
29z"/>
<path d="M3771 1134 c0 -11 3 -14 6 -6 3 7 2 16 -1 19 -3 4 -6 -2 -5 -13z"/>
<path d="M1 1124 c0 -11 3 -14 6 -6 3 7 2 16 -1 19 -3 4 -6 -2 -5 -13z"/>
<path d="M1298 1133 c7 -3 16 -2 19 1 4 3 -2 6 -13 5 -11 0 -14 -3 -6 -6z"/>
<path d="M1462 1120 c0 -14 2 -19 5 -12 2 6 2 18 0 25 -3 6 -5 1 -5 -13z"/>
<path d="M3045 1130 l-30 -8 27 -1 c15 0 30 4 33 9 3 6 5 9 3 9 -2 -1 -16 -5
-33 -9z"/>
<path d="M1330 1110 c0 -5 5 -10 11 -10 5 0 7 5 4 10 -3 6 -8 10 -11 10 -2 0
-4 -4 -4 -10z"/>
<path d="M3543 1070 c0 -30 2 -43 4 -27 2 15 2 39 0 55 -2 15 -4 2 -4 -28z"/>
<path d="M2031 1094 c0 -11 3 -14 6 -6 3 7 2 16 -1 19 -3 4 -6 -2 -5 -13z"/>
<path d="M3342 1090 c0 -14 2 -19 5 -12 2 6 2 18 0 25 -3 6 -5 1 -5 -13z"/>
<path d="M1368 1093 c7 -3 16 -2 19 1 4 3 -2 6 -13 5 -11 0 -14 -3 -6 -6z"/>
<path d="M1410 1090 c-13 -8 -12 -10 3 -10 9 0 17 5 17 10 0 12 -1 12 -20 0z"/>
<path d="M3513 1065 c0 -22 2 -30 4 -17 2 12 2 30 0 40 -3 9 -5 -1 -4 -23z"/>
<path d="M1802 1070 c0 -14 2 -19 5 -12 2 6 2 18 0 25 -3 6 -5 1 -5 -13z"/>
<path d="M1773 1040 c0 -25 2 -35 4 -22 2 12 2 32 0 45 -2 12 -4 2 -4 -23z"/>
<path d="M3781 1064 c0 -11 3 -14 6 -6 3 7 2 16 -1 19 -3 4 -6 -2 -5 -13z"/>
<path d="M1601 1054 c0 -11 3 -14 6 -6 3 7 2 16 -1 19 -3 4 -6 -2 -5 -13z"/>
<path d="M3250 1035 c13 -14 26 -25 28 -25 3 0 -5 11 -18 25 -13 14 -26 25
-28 25 -3 0 5 -11 18 -25z"/>
<path d="M1510 1005 c13 -14 26 -25 28 -25 3 0 -5 11 -18 25 -13 14 -26 25
-28 25 -3 0 5 -11 18 -25z"/>
<path d="M1802 1010 c0 -14 2 -19 5 -12 2 6 2 18 0 25 -3 6 -5 1 -5 -13z"/>
<path d="M283 1003 c15 -2 39 -2 55 0 15 2 2 4 -28 4 -30 0 -43 -2 -27 -4z"/>
<path d="M2549 973 c-13 -16 -12 -17 4 -4 9 7 17 15 17 17 0 8 -8 3 -21 -13z"/>
<path d="M3400 965 c13 -14 26 -25 28 -25 3 0 -5 11 -18 25 -13 14 -26 25 -28
25 -3 0 5 -11 18 -25z"/>
<path d="M2016 953 c-6 -14 -5 -15 5 -6 7 7 10 15 7 18 -3 3 -9 -2 -12 -12z"/>
<path d="M1660 935 c13 -14 26 -25 28 -25 3 0 -5 11 -18 25 -13 14 -26 25 -28
25 -3 0 5 -11 18 -25z"/>
<path d="M3729 943 c-13 -16 -12 -17 4 -4 9 7 17 15 17 17 0 8 -8 3 -21 -13z"/>
<path d="M2509 933 c-13 -16 -12 -17 4 -4 16 13 21 21 13 21 -2 0 -10 -8 -17
-17z"/>
<path d="M3556 937 c3 -10 9 -15 12 -12 3 3 0 11 -7 18 -10 9 -11 8 -5 -6z"/>
<path d="M1813 905 c0 -8 4 -12 9 -9 5 3 6 10 3 15 -9 13 -12 11 -12 -6z"/>
<path d="M3503 913 c9 -2 23 -2 30 0 6 3 -1 5 -18 5 -16 0 -22 -2 -12 -5z"/>
<path d="M3648 913 c6 -2 18 -2 25 0 6 3 1 5 -13 5 -14 0 -19 -2 -12 -5z"/>
<path d="M1918 883 c7 -3 16 -2 19 1 4 3 -2 6 -13 5 -11 0 -14 -3 -6 -6z"/>
<path d="M3518 853 c7 -3 16 -2 19 1 4 3 -2 6 -13 5 -11 0 -14 -3 -6 -6z"/>
<path d="M3578 843 c6 -2 18 -2 25 0 6 3 1 5 -13 5 -14 0 -19 -2 -12 -5z"/>
<path d="M3928 843 c6 -2 18 -2 25 0 6 3 1 5 -13 5 -14 0 -19 -2 -12 -5z"/>
<path d="M3723 833 c26 -2 67 -2 90 0 23 2 2 3 -48 3 -49 0 -68 -1 -42 -3z"/>
<path d="M1848 813 c7 -3 16 -2 19 1 4 3 -2 6 -13 5 -11 0 -14 -3 -6 -6z"/>
<path d="M2188 813 c7 -3 16 -2 19 1 4 3 -2 6 -13 5 -11 0 -14 -3 -6 -6z"/>
<path d="M1988 803 c23 -2 59 -2 80 0 20 2 1 4 -43 4 -44 0 -61 -2 -37 -4z"/>
</g>
</svg>